<svg xmlns="http://www.w3.org/2000/svg" xmlns:xlink="http://www.w3.org/1999/xlink" viewBox="0 0 4331.39 3166.06"><defs><style>.cls-1{mask:url(#mask);filter:url(#luminosity-noclip-7);}.cls-10,.cls-12,.cls-16,.cls-2,.cls-20,.cls-4,.cls-47,.cls-49,.cls-51,.cls-6,.cls-66,.cls-8{mix-blend-mode:multiply;}.cls-2{fill:url(#linear-gradient);}.cls-3{mask:url(#mask-2);filter:url(#luminosity-noclip-12);}.cls-4{fill:url(#linear-gradient-2);}.cls-5{mask:url(#mask-3);filter:url(#luminosity-noclip-8);}.cls-6{fill:url(#linear-gradient-3);}.cls-7{mask:url(#mask-4);filter:url(#luminosity-noclip-9);}.cls-8{fill:url(#linear-gradient-4);}.cls-9{mask:url(#mask-5);filter:url(#luminosity-noclip-10);}.cls-10{fill:url(#linear-gradient-5);}.cls-11{mask:url(#mask-6);filter:url(#luminosity-noclip-11);}.cls-12{fill:url(#linear-gradient-6);}.cls-13{isolation:isolate;}.cls-14{fill:#f7c4d9;}.cls-15{mask:url(#mask-7);}.cls-16,.cls-47,.cls-49,.cls-51,.cls-66{opacity:0.5;}.cls-16{fill:url(#linear-gradient-7);}.cls-17{fill:url(#linear-gradient-8);}.cls-18{fill:#fff37c;}.cls-19{mask:url(#mask-8);}.cls-20{opacity:0.6;fill:url(#linear-gradient-9);}.cls-21{fill:#666;}.cls-22{fill:#757575;}.cls-23{fill:#595959;}.cls-24,.cls-41{fill:#fff;}.cls-25{fill:#ea4886;}.cls-26{fill:#f9d7e4;}.cls-27{fill:#f7bcd4;}.cls-28{fill:#f45696;}.cls-29{fill:#9e1f63;}.cls-30{fill:#e6e6e6;}.cls-31{fill:#b2084d;}.cls-32{fill:#5b5b5b;}.cls-33{fill:#b2b2b2;}.cls-34{fill:#4d4d4d;}.cls-35{fill:#5c5c5c;}.cls-36{fill:#ccc;}.cls-37{fill:#ad0e4f;}.cls-38{fill:#deb275;}.cls-39{fill:#ffcd8c;}.cls-40{fill:#b38358;}.cls-41{mix-blend-mode:soft-light;}.cls-42{fill:#e8bb7f;}.cls-43{opacity:0.2;mix-blend-mode:hard-light;}.cls-44{fill:#c99d62;}.cls-45{fill:#919191;}.cls-46{mask:url(#mask-9);}.cls-47{fill:url(#linear-gradient-10);}.cls-48{mask:url(#mask-10);}.cls-49{fill:url(#linear-gradient-11);}.cls-50{mask:url(#mask-11);}.cls-51{fill:url(#linear-gradient-12);}.cls-52{fill:url(#linear-gradient-13);}.cls-53{fill:url(#linear-gradient-14);}.cls-54{fill:#edeceb;}.cls-55{fill:#edcf85;}.cls-56{fill:#f9a0c4;}.cls-57{fill:url(#linear-gradient-15);}.cls-58{fill:#f467a1;}.cls-59{fill:#d9c561;}.cls-60{fill:#e8dc68;}.cls-61{fill:#fff39e;}.cls-62{fill:#e8db52;}.cls-63{fill:#adafb3;}.cls-64{fill:#cacdd1;}.cls-65{mask:url(#mask-12);}.cls-66{fill:url(#linear-gradient-16);}.cls-67{fill:#e9fff6;}.cls-68{fill:#a30a50;}.cls-69{fill:#b70f53;}.cls-70{fill:#f45d9a;}.cls-71{fill:#f44d90;}.cls-72{fill:#ef5493;}.cls-73{fill:#2b8a8f;}.cls-74{fill:#49c4cc;}.cls-75{fill:#74e2e8;}.cls-76{fill:#5ad0d6;}.cls-77{filter:url(#luminosity-noclip-6);}.cls-78{filter:url(#luminosity-noclip-5);}.cls-79{filter:url(#luminosity-noclip-4);}.cls-80{filter:url(#luminosity-noclip-3);}.cls-81{filter:url(#luminosity-noclip-2);}.cls-82{filter:url(#luminosity-noclip);}</style><filter id="luminosity-noclip" x="113.59" y="-9628.63" width="2268.35" height="32766" filterUnits="userSpaceOnUse" color-interpolation-filters="sRGB"><feFlood flood-color="#fff" result="bg"/><feBlend in="SourceGraphic" in2="bg"/></filter><mask id="mask" x="113.59" y="-9628.63" width="2268.35" height="32766" maskUnits="userSpaceOnUse"><g class="cls-82"/></mask><linearGradient id="linear-gradient" x1="534.92" y1="2800.15" x2="2133.66" y2="2032.95" gradientUnits="userSpaceOnUse"><stop offset="0" stop-color="#fff"/><stop offset="1"/></linearGradient><filter id="luminosity-noclip-2" x="2411.86" y="-9628.63" width="1779.68" height="32766" filterUnits="userSpaceOnUse" color-interpolation-filters="sRGB"><feFlood flood-color="#fff" result="bg"/><feBlend in="SourceGraphic" in2="bg"/></filter><mask id="mask-2" x="2411.86" y="-9628.63" width="1779.68" height="32766" maskUnits="userSpaceOnUse"><g class="cls-81"/></mask><linearGradient id="linear-gradient-2" x1="2808.33" y1="2875.6" x2="4240.51" y2="2188.33" xlink:href="#linear-gradient"/><filter id="luminosity-noclip-3" x="1466.88" y="-9628.63" width="2864.52" height="32766" filterUnits="userSpaceOnUse" color-interpolation-filters="sRGB"><feFlood flood-color="#fff" result="bg"/><feBlend in="SourceGraphic" in2="bg"/></filter><mask id="mask-3" x="1466.88" y="-9628.63" width="2864.52" height="32766" maskUnits="userSpaceOnUse"><g class="cls-80"/></mask><linearGradient id="linear-gradient-3" x1="2306.19" y1="2537.36" x2="3766.43" y2="1796.65" xlink:href="#linear-gradient"/><filter id="luminosity-noclip-4" x="1889.67" y="-9628.63" width="328.19" height="32766" filterUnits="userSpaceOnUse" color-interpolation-filters="sRGB"><feFlood flood-color="#fff" result="bg"/><feBlend in="SourceGraphic" in2="bg"/></filter><mask id="mask-4" x="1889.67" y="-9628.63" width="328.19" height="32766" maskUnits="userSpaceOnUse"><g class="cls-79"/></mask><linearGradient id="linear-gradient-4" x1="1946.53" y1="3048.33" x2="2344.48" y2="2872.2" xlink:href="#linear-gradient"/><filter id="luminosity-noclip-5" x="2380.69" y="-9628.63" width="366.77" height="32766" filterUnits="userSpaceOnUse" color-interpolation-filters="sRGB"><feFlood flood-color="#fff" result="bg"/><feBlend in="SourceGraphic" in2="bg"/></filter><mask id="mask-5" x="2380.69" y="-9628.63" width="366.77" height="32766" maskUnits="userSpaceOnUse"><g class="cls-78"/></mask><linearGradient id="linear-gradient-5" x1="2443.83" y1="3126.26" x2="2890.05" y2="2928.77" xlink:href="#linear-gradient"/><filter id="luminosity-noclip-6" x="1961.5" y="-9628.63" width="279.45" height="32766" filterUnits="userSpaceOnUse" color-interpolation-filters="sRGB"><feFlood flood-color="#fff" result="bg"/><feBlend in="SourceGraphic" in2="bg"/></filter><mask id="mask-6" x="1961.5" y="-9628.63" width="279.45" height="32766" maskUnits="userSpaceOnUse"><g class="cls-77"/></mask><linearGradient id="linear-gradient-6" x1="2009.61" y1="2779.66" x2="2349.59" y2="2629.2" xlink:href="#linear-gradient"/><filter id="luminosity-noclip-7" x="113.59" y="2075.79" width="2268.35" height="797.83" filterUnits="userSpaceOnUse" color-interpolation-filters="sRGB"><feFlood flood-color="#fff" result="bg"/><feBlend in="SourceGraphic" in2="bg"/></filter><mask id="mask-7" x="113.59" y="2075.79" width="2268.35" height="797.83" maskUnits="userSpaceOnUse"><g class="cls-1"><polygon class="cls-2" points="113.59 2757.56 678.48 2873.61 2381.95 2158.57 1798.18 2075.79 113.59 2757.56"/></g></mask><linearGradient id="linear-gradient-7" x1="534.92" y1="2800.15" x2="2133.66" y2="2032.95" gradientUnits="userSpaceOnUse"><stop offset="0" stop-color="#ff2aa7"/><stop offset="1" stop-color="#fff"/></linearGradient><linearGradient id="linear-gradient-8" x1="2510.39" y1="1479.96" x2="3603.82" y2="1479.96" gradientUnits="userSpaceOnUse"><stop offset="0" stop-color="#7d327e"/><stop offset="1" stop-color="#ea3b82"/></linearGradient><filter id="luminosity-noclip-8" x="1466.88" y="1845.36" width="2864.52" height="786.05" filterUnits="userSpaceOnUse" color-interpolation-filters="sRGB"><feFlood flood-color="#fff" result="bg"/><feBlend in="SourceGraphic" in2="bg"/></filter><mask id="mask-8" x="1466.88" y="1845.36" width="2864.52" height="786.05" maskUnits="userSpaceOnUse"><g class="cls-5"><path class="cls-6" d="M1466.88,2489.09l1850.74-643.73,1013.77,138.73L2777,2595a341.51,341.51,0,0,1-196,33.78Z"/></g></mask><linearGradient id="linear-gradient-9" x1="2306.19" y1="2537.36" x2="3766.43" y2="1796.65" gradientUnits="userSpaceOnUse"><stop offset="0" stop-color="#0e7aa5"/><stop offset="1" stop-color="#fff"/></linearGradient><filter id="luminosity-noclip-9" x="1889.67" y="2923.56" width="328.19" height="154.62" filterUnits="userSpaceOnUse" color-interpolation-filters="sRGB"><feFlood flood-color="#fff" result="bg"/><feBlend in="SourceGraphic" in2="bg"/></filter><mask id="mask-9" x="1889.67" y="2923.56" width="328.19" height="154.62" maskUnits="userSpaceOnUse"><g class="cls-7"><ellipse class="cls-8" cx="2053.77" cy="3000.87" rx="164.09" ry="77.31"/></g></mask><linearGradient id="linear-gradient-10" x1="1946.53" y1="3048.33" x2="2344.48" y2="2872.2" xlink:href="#linear-gradient-9"/><filter id="luminosity-noclip-10" x="2380.69" y="2980.04" width="366.77" height="186.02" filterUnits="userSpaceOnUse" color-interpolation-filters="sRGB"><feFlood flood-color="#fff" result="bg"/><feBlend in="SourceGraphic" in2="bg"/></filter><mask id="mask-10" x="2380.69" y="2980.04" width="366.77" height="186.02" maskUnits="userSpaceOnUse"><g class="cls-9"><ellipse class="cls-10" cx="2564.07" cy="3073.05" rx="183.39" ry="93.01"/></g></mask><linearGradient id="linear-gradient-11" x1="2443.83" y1="3126.26" x2="2890.05" y2="2928.77" xlink:href="#linear-gradient-9"/><filter id="luminosity-noclip-11" x="1961.5" y="2668.25" width="279.45" height="141.73" filterUnits="userSpaceOnUse" color-interpolation-filters="sRGB"><feFlood flood-color="#fff" result="bg"/><feBlend in="SourceGraphic" in2="bg"/></filter><mask id="mask-11" x="1961.5" y="2668.25" width="279.45" height="141.73" maskUnits="userSpaceOnUse"><g class="cls-11"><ellipse class="cls-12" cx="2101.22" cy="2739.12" rx="139.72" ry="70.87"/></g></mask><linearGradient id="linear-gradient-12" x1="2009.61" y1="2779.66" x2="2349.59" y2="2629.2" xlink:href="#linear-gradient-9"/><linearGradient id="linear-gradient-13" x1="2908.6" y1="724.79" x2="3788.23" y2="724.79" gradientUnits="userSpaceOnUse"><stop offset="0" stop-color="#ea4886"/><stop offset="0.41" stop-color="#d95c97"/><stop offset="1" stop-color="#bb7fb7"/></linearGradient><linearGradient id="linear-gradient-14" x1="2963.42" y1="190.14" x2="3135.08" y2="1054.91" gradientUnits="userSpaceOnUse"><stop offset="0.24" stop-color="#ebbc60"/><stop offset="0.55" stop-color="#fff"/><stop offset="0.99" stop-color="#ffbc38"/></linearGradient><linearGradient id="linear-gradient-15" x1="582.24" y1="529.28" x2="816.73" y2="901.07" xlink:href="#linear-gradient-14"/><filter id="luminosity-noclip-12" x="2411.86" y="2361.99" width="1779.68" height="633.45" filterUnits="userSpaceOnUse" color-interpolation-filters="sRGB"><feFlood flood-color="#fff" result="bg"/><feBlend in="SourceGraphic" in2="bg"/></filter><mask id="mask-12" x="2411.86" y="2361.99" width="1779.68" height="633.45" maskUnits="userSpaceOnUse"><g class="cls-3"><polygon class="cls-4" points="3401.27 2361.99 2411.86 2797.77 2682.73 2870.5 2815.24 2870.18 2813.3 2905.9 3115.41 2995.43 4191.53 2479.93 3401.27 2361.99"/></g></mask><linearGradient id="linear-gradient-16" x1="2808.33" y1="2875.6" x2="4240.51" y2="2188.33" xlink:href="#linear-gradient-9"/></defs><g class="cls-13"><g id="Layer_2" data-name="Layer 2"><g id="Layer_7" data-name="Layer 7"><circle class="cls-14" cx="1276.5" cy="461.39" r="52.49"/><path class="cls-14" d="M1291.54,213.69,1289.36,180c-177-.34-311.5,140.67-302.8,317.43l33.75.53C1012.81,339.77,1133.1,213.64,1291.54,213.69Z"/><path class="cls-14" d="M1296.06,283.65,1293.89,250c-138.41.26-243.46,110.38-237.23,248.57l33.75.53C1085.38,379.45,1176.27,284.19,1296.06,283.65Z"/><path class="cls-14" d="M1300.44,351.37l-2.18-33.68c-101,.82-177.57,81-173.74,181.9l33.76.53C1155.62,417.84,1218,352.47,1300.44,351.37Z"/><g class="cls-15"><polygon class="cls-16" points="113.59 2757.56 678.48 2873.61 2381.95 2158.57 1798.18 2075.79 113.59 2757.56"/></g><path class="cls-17" d="M3468.64,1643l-857.48-94.3c-57.16-6.28-101.9-62.56-100.75-125.78h0c1.16-63.23,47.8-110.93,105-106.48l858,66.71c72.82,5.66,131.74,69.45,130.4,142.39h0C3602.46,1598.45,3541.42,1651,3468.64,1643Z"/><polygon class="cls-18" points="2768.55 1387.39 2781.49 1435.6 2826.57 1439.72 2789.51 1465.51 2802.55 1514.09 2766.83 1481.3 2730.5 1506.58 2744.98 1461.22 2709.97 1429.07 2753.96 1433.09 2768.55 1387.39"/><polygon class="cls-18" points="2917.64 1399.82 2931.27 1449.29 2978.68 1453.62 2939.72 1479.98 2953.45 1529.84 2915.89 1496.11 2877.71 1521.93 2892.91 1475.47 2856.09 1442.42 2902.33 1446.65 2917.64 1399.82"/><polygon class="cls-18" points="3074.48 1412.9 3088.84 1463.69 3138.77 1468.25 3097.76 1495.2 3112.24 1546.4 3072.68 1511.69 3032.51 1538.08 3048.48 1490.46 3009.73 1456.46 3058.39 1460.91 3074.48 1412.9"/><polygon class="cls-18" points="3239.68 1426.68 3254.84 1478.86 3307.48 1483.67 3264.26 1511.24 3279.55 1563.85 3237.83 1528.1 3195.52 1555.09 3212.32 1506.24 3171.48 1471.24 3222.74 1475.93 3239.68 1426.68"/><polygon class="cls-18" points="3413.92 1441.22 3429.96 1494.87 3485.54 1499.94 3439.91 1528.16 3456.08 1582.27 3412.02 1545.41 3367.39 1573.01 3385.09 1522.88 3341.98 1486.83 3396.07 1491.77 3413.92 1441.22"/><g class="cls-19"><path class="cls-20" d="M1466.88,2489.09l1850.74-643.73,1013.77,138.73L2777,2595a341.51,341.51,0,0,1-196,33.78Z"/></g><path class="cls-21" d="M2791.42,131.73C2774.43,6.31,2567.81-41,2568,40.27L1675,82.28c-58.07,2.73-106.86,55.94-109.43,118.87l-86.89,2124.63c-2.58,62.92,41.71,119.94,99.36,127.41l888,115c5.3,12,15.77,23.57,32.66,34.26,109.17,15.63,164.6-27.34,186.85-81.1a119.11,119.11,0,0,0,12.11-48.19C2695.21,2443.29,2797.16,161.09,2791.42,131.73Z"/><path class="cls-22" d="M2488.53,2601.58,1475.07,2470.3c-58.86-7.63-104.08-65.85-101.45-130.1l88.72-2169.42c2.63-64.25,52.45-118.58,111.74-121.37l1020.79-48c69-3.25,123.11,51,120.25,121.09l-96.86,2368.23C2615.39,2560.85,2557.05,2610.45,2488.53,2601.58Z"/><path class="cls-23" d="M2504.33,2586.75a108.36,108.36,0,0,1-13.76-.9L1477.11,2454.57c-50.63-6.56-89.94-57.57-87.65-113.72l88.73-2169.42c2.29-56.15,45.65-103.78,96.64-106.18l1020.79-48c1.71-.08,3.43-.13,5.13-.13,27.49,0,52.76,10.55,71.14,29.71,18.83,19.61,28.56,46.26,27.38,75l-96.85,2368.22C2600.16,2545.18,2558,2586.75,2504.33,2586.75Z"/><polygon class="cls-24" points="2563.72 2489.19 1420.45 2350.55 1510.77 142.02 2661.62 95.39 2563.72 2489.19"/><polygon class="cls-25" points="2652.54 317.5 1502.39 346.94 1510.77 142.02 2661.62 95.39 2652.54 317.5"/><path class="cls-24" d="M2560.66,230.56l-69.49,2.2a2.89,2.89,0,0,1-2.92-2.15L2476.73,189a3.5,3.5,0,0,1,3.18-4.32l96.13-3.36a2.93,2.93,0,0,1,2.53,1.25,3.19,3.19,0,0,1,.35,2.89l-15.13,42.75A3.49,3.49,0,0,1,2560.66,230.56Zm-66.92-4.33,64.85-2.08L2571.38,188,2484,191Z"/><path class="cls-24" d="M2554.19,248.64l-59.25,1.8a2.94,2.94,0,0,1-3-3.13,3.5,3.5,0,0,1,3.3-3.33l56.92-1.76a6.35,6.35,0,0,0,6.16-5.81c.36-2.51-.47-5-2.1-5.71l22.73-64.59a3.53,3.53,0,0,1,3.15-2.37l20.88-.76a3,3,0,0,1,3.08,3.14,3.56,3.56,0,0,1-3.35,3.37l-18.53.66-20.89,60C2567.82,238.14,2560.73,248.44,2554.19,248.64Z"/><path class="cls-24" d="M2513.88,260.68a8,8,0,0,1-7.6,7.66,6.79,6.79,0,0,1-7-7.22,8,8,0,0,1,7.6-7.65A6.77,6.77,0,0,1,2513.88,260.68Z"/><path class="cls-24" d="M2550.74,259.59a8,8,0,0,1-7.64,7.67,6.8,6.8,0,0,1-7-7.23,8.06,8.06,0,0,1,7.64-7.67A6.78,6.78,0,0,1,2550.74,259.59Z"/><path class="cls-24" d="M2527.56,231.61a2.94,2.94,0,0,1-3-3.14l1.72-42.18a3.53,3.53,0,0,1,3.32-3.34,2.93,2.93,0,0,1,3,3.12l-1.73,42.2A3.5,3.5,0,0,1,2527.56,231.61Z"/><path class="cls-24" d="M2509.84,232.17a2.91,2.91,0,0,1-3-2.42l-7.66-41.8a3.5,3.5,0,0,1,2.55-3.95,2.91,2.91,0,0,1,3.69,2.3l7.67,41.82a3.51,3.51,0,0,1-2.55,3.95A3.57,3.57,0,0,1,2509.84,232.17Z"/><path class="cls-24" d="M2544.58,231.07a3.62,3.62,0,0,1-.46,0,3,3,0,0,1-2.54-3.59l7.77-42.43a3.5,3.5,0,0,1,3.73-2.87,3,3,0,0,1,2.55,3.58l-7.78,42.45A3.51,3.51,0,0,1,2544.58,231.07Z"/><path class="cls-24" d="M2568.2,209.46l-82.72,2.73a2.92,2.92,0,0,1-3-3.12,3.49,3.49,0,0,1,3.29-3.33l82.73-2.77a3,3,0,0,1,3.07,3.14A3.54,3.54,0,0,1,2568.2,209.46Z"/><path class="cls-24" d="M2605.32,170.94l-18.83.67.4-9.78,18.83-.68a4,4,0,0,1,4.22,4.29l0,.89A4.86,4.86,0,0,1,2605.32,170.94Z"/><polygon class="cls-26" points="2265.23 276.18 1838.69 288.61 1840.39 247.19 2266.98 233.5 2265.23 276.18"/><path class="cls-25" d="M1603.3,559a54.23,54.23,0,0,1-39.25-16.72c-11.68-12-18-29.21-17.23-47.12,1.45-35.33,29.23-64.58,62-65.2l912.59-17.46a63.06,63.06,0,0,1,46.78,18.92c12.58,12.86,19.09,30.19,18.33,48.83-1.55,37.86-33.1,69-70.33,69.35l0-3.5,0,3.5L1603.88,559Zm919.36-139.51h-1.17L1608.9,437c-29.07.55-53.78,26.79-55.07,58.48-.66,16,4.9,31.28,15.25,41.95A47.23,47.23,0,0,0,1603.81,552l912.26-9.4c33.56-.34,62-28.44,63.39-62.63.68-16.68-5.12-32.18-16.33-43.63A56,56,0,0,0,2522.66,419.51Z"/><path class="cls-25" d="M2516.11,546.12l-73.86.76,5.29-129.45,73.89-1.41c35.39-.68,63,28,61.53,64.1h0C2581.49,516.2,2551.48,545.75,2516.11,546.12Z"/><path class="cls-27" d="M1979.11,1118.59l-417-12.37c-11.37-.33-20.17-10.64-19.67-23l16.08-393.13c.51-12.37,10.14-22.43,21.53-22.45l417.5-.92c12.11,0,21.52,10.32,21,23.11L2002,1096.09C2001.45,1108.87,1991.21,1119,1979.11,1118.59Z"/><polygon class="cls-28" points="2096.05 670.16 2093.86 723.88 2591.06 724.79 2593.34 669.2 2096.05 670.16"/><polygon class="cls-28" points="2092.7 752.2 2090.5 805.92 2544.12 809.35 2546.39 753.93 2092.7 752.2"/><polygon class="cls-28" points="2089.34 834.24 2087.15 887.96 2445.95 892.74 2448.2 837.67 2089.34 834.24"/><path class="cls-25" d="M2550.14,1135.65,2096.7,1122.2c-10.4-.31-18.47-9.39-18-20.29l4.21-102.9c.44-10.89,9.23-19.56,19.64-19.35l453.62,8.93a19.76,19.76,0,0,1,19.27,20.8l-4.35,106.45A20.55,20.55,0,0,1,2550.14,1135.65Z"/><path class="cls-24" d="M2130,1066.25l-3.63,10-8.92-.24,16-43.37,11.37.26,13.14,44.18-9.57-.25-3.06-10.2Zm13.69-7.41c-2.6-9.35-4.24-15.31-5.12-19.27h-.06c-1.21,4.29-3.55,11.1-6.25,19Z"/><path class="cls-24" d="M2165.14,1033.39l16.74.39c12.24.28,20,8.89,19.46,21.91-.52,12.82-8.77,22.31-21.68,22l-16.31-.43Zm7.61,36.44,6.85.18c8.08.21,12-6,12.3-14.56.29-7.2-2.81-13.85-11.07-14l-6.91-.16Z"/><path class="cls-24" d="M2210.2,1034.44l16.84.39c12.32.29,20.12,8.93,19.59,22-.53,12.87-8.82,22.39-21.82,22l-16.41-.43Zm7.67,36.56,6.89.18c8.12.21,12-6,12.37-14.6.29-7.23-2.83-13.9-11.14-14.1l-6.95-.16Z"/><path class="cls-24" d="M2278.74,1043.87l-13-.31.32-7.82,35.24.82-.32,7.84-13-.31-1.49,36.39-9.24-.24Z"/><path class="cls-24" d="M2344.37,1059.63c-.51,12.37-8.13,22.81-22.12,22.44-13.53-.36-20.15-10.63-19.62-23.35s8.71-22.57,22-22.25C2337.29,1036.76,2344.92,1046,2344.37,1059.63Zm-32.15-.87c-.36,8.68,3.05,15.34,10.66,15.53,8.3.22,11.53-6.85,11.85-14.77.35-8.44-2.76-15.09-10.75-15.28C2316.19,1044.06,2312.57,1050.15,2312.22,1058.76Z"/><path class="cls-24" d="M2404.13,1069.79c-2,8.3-8.4,14.22-19.3,13.94-13.76-.37-19.82-10.54-19.3-23.19.5-12.2,7.66-22.94,21.62-22.62,11.59.27,16.91,7.32,17.68,14.86l-9.39-.23c-.81-3.52-3-7-8.91-7.14-7.74-.18-11,6.91-11.32,15-.31,7.49,1.95,15.5,10.31,15.72,6.17.16,8.23-4,9.16-6.63Z"/><path class="cls-24" d="M2419.4,1073.68l-3.77,10.21-9.28-.24,16.6-44.25,11.84.28,13.7,45.08-9.95-.26-3.19-10.41Zm14.24-7.55c-2.71-9.54-4.43-15.62-5.34-19.66h-.06c-1.26,4.38-3.7,11.32-6.5,19.36Z"/><path class="cls-24" d="M2464.09,1067.22l-.73,17.93-9.28-.24,1.83-44.74,19.27.45c9.56.23,14.51,5.68,14.23,12.65-.25,6-3.57,9.16-6.81,10.44,2.13.9,5.35,3.27,5,11.33l-.09,2.22c-.12,3-.26,6.44.29,8.54l-9.05-.24c-.69-2-.68-5.36-.48-10.11l0-.64c.2-4.88-.91-7.25-8-7.43Zm.32-7.73,8,.2c5.16.12,7.29-1.84,7.44-5.55s-2.13-5.78-6.78-5.89l-8.14-.19Z"/><path class="cls-24" d="M2507.35,1049.33l-13.42-.32.32-7.94,36.36.85-.32,8-13.4-.32-1.52,37-9.53-.25Z"/><path class="cls-29" d="M1868.38,991.57l-8.07-2.73c.2-.63,17-65.22,19.18-89.87,2.58-29.68-5.06-56-22.08-76.13-19.41-22.94-49.72-36.18-83.09-36.39-32.48-.21-61.09,11.34-80.64,32.48-17.93,19.37-27.21,46-26.87,77,.26,24.51,9.34,86.33,9.43,87l-8.2,1.62c-.38-2.57-9.25-63-9.52-88.2-.36-33.5,9.78-62.38,29.37-83.57,21.2-22.94,52-35.49,86.79-35.29,35.68.2,68.21,14.47,89.15,39.2,18.61,22,27,50.67,24.18,82.91C1885.78,925.28,1869.21,989,1868.38,991.57Z"/><path class="cls-29" d="M1670.25,942.9l8.29,62.59c.89,6.77,6.37,11.5,12.59,11.19l-11.66-88.92C1673.4,929.61,1669.34,936.09,1670.25,942.9Z"/><path class="cls-29" d="M1692.6,1016.52l23.62-4.2-11.86-89.23-23.57,4.35a11.55,11.55,0,0,0-1.32.32l11.66,88.92A12.45,12.45,0,0,0,1692.6,1016.52Z"/><path class="cls-29" d="M1722.09,1021.21h0c-7.23,1.28-13.92-4-14.95-11.7L1696.45,929c-1-7.72,4-15.06,11.19-16.39h0c7.22-1.34,13.91,3.85,14.94,11.58l10.75,80.69C1734.36,1012.6,1729.32,1019.93,1722.09,1021.21Z"/><path class="cls-29" d="M1870.58,947.34l-15.2,62.66c-1.64,6.76-7.73,11.12-14,10.35l21.4-88.88C1868.77,933.71,1872.24,940.52,1870.58,947.34Z"/><path class="cls-29" d="M1839.86,1020.08l-23.5-6,21.51-88.87,23.57,5.81a11.09,11.09,0,0,1,1.31.41l-21.4,88.88A11.11,11.11,0,0,1,1839.86,1020.08Z"/><path class="cls-29" d="M1809.49,1022.61h0c7.17,1.82,14.49-2.94,16.36-10.64l19.45-80.32c1.87-7.72-2.45-15.42-9.64-17.19h0c-7.18-1.76-14.5,3.06-16.37,10.76l-19.38,80.18C1798.05,1013.09,1802.34,1020.79,1809.49,1022.61Z"/><path class="cls-27" d="M1950.39,1723l-416.23-30.14c-11.36-.82-20.14-11.52-19.63-23.89l16.08-393.14c.5-12.37,10.12-22,21.49-21.57l416.77,16.85c12.09.49,21.49,11.25,21,24l-16.61,406.28C1972.69,1714.22,1962.47,1723.88,1950.39,1723Z"/><polygon class="cls-28" points="2067.16 1278.77 2064.97 1332.49 2561.3 1354.56 2563.58 1298.97 2067.16 1278.77"/><polygon class="cls-28" points="2063.81 1360.81 2061.61 1414.53 2514.44 1437.27 2516.71 1381.84 2063.81 1360.81"/><polygon class="cls-28" points="2060.45 1442.85 2058.26 1496.57 2416.43 1516.62 2418.68 1461.55 2060.45 1442.85"/><path class="cls-25" d="M2524.42,1764.56l-452.65-32.77c-10.39-.75-18.43-10.19-18-21.09l4.21-102.9c.45-10.89,9.22-19.2,19.61-18.55l452.83,28.25a20.81,20.81,0,0,1,19.24,21.66l-4.36,106.45A19.51,19.51,0,0,1,2524.42,1764.56Z"/><path class="cls-24" d="M2105.05,1677.16l-3.63,9.87-8.9-.61,16-42.77,11.36.75,13.1,44.81-9.55-.66-3-10.35Zm13.66-6.84c-2.59-9.48-4.23-15.51-5.1-19.52h-.06c-1.21,4.26-3.56,11-6.25,18.75Z"/><path class="cls-24" d="M2140.09,1645.73l16.72,1.11c12.22.81,20,9.76,19.42,22.78-.52,12.82-8.75,22-21.65,21.09l-16.28-1.13Zm7.6,36.84,6.84.47c8.06.55,11.93-5.52,12.28-14.06.29-7.2-2.8-14-11-14.55l-6.9-.45Z"/><path class="cls-24" d="M2185.07,1648.71l16.82,1.11c12.3.81,20.09,9.79,19.55,22.85-.52,12.87-8.8,22-21.78,21.15l-16.38-1.13Zm7.66,37,6.88.47c8.11.55,12-5.53,12.35-14.1.29-7.23-2.82-14-11.12-14.59l-6.94-.47Z"/><path class="cls-24" d="M2253.5,1661.07l-13-.86.32-7.82,35.18,2.32-.32,7.84-13-.86-1.48,36.39-9.23-.64Z"/><path class="cls-24" d="M2319,1679.65c-.51,12.37-8.12,22.51-22.08,21.54-13.5-.93-20.11-11.51-19.59-24.23s8.7-22.23,22-21.35C2312,1656.44,2319.57,1666.05,2319,1679.65Zm-32.09-2.23c-.36,8.68,3,15.49,10.64,16,8.29.57,11.51-6.38,11.83-14.3.35-8.44-2.75-15.23-10.73-15.76C2290.88,1662.85,2287.27,1668.8,2286.92,1677.42Z"/><path class="cls-24" d="M2378.67,1692.38c-2,8.23-8.39,13.88-19.27,13.13-13.74-1-19.78-11.4-19.27-24,.5-12.2,7.65-22.66,21.59-21.74,11.57.76,16.88,8,17.65,15.63l-9.38-.63c-.8-3.55-3-7.13-8.89-7.53-7.73-.51-11,6.46-11.3,14.6-.31,7.49,1.94,15.6,10.29,16.18,6.16.42,8.22-3.65,9.14-6.25Z"/><path class="cls-24" d="M2393.91,1696.92l-3.77,10.07-9.26-.64,16.58-43.61,11.81.78,13.68,45.74-9.94-.69-3.18-10.56Zm14.22-7c-2.71-9.67-4.42-15.83-5.33-19.92h-.07c-1.25,4.33-3.68,11.19-6.48,19.12Z"/><path class="cls-24" d="M2438.53,1692.35l-.74,17.93-9.26-.64,1.83-44.73,19.24,1.27c9.54.63,14.48,6.31,14.2,13.27-.25,6-3.56,9-6.8,10.18,2.13,1,5.35,3.49,5,11.56l-.09,2.21c-.13,3-.27,6.45.28,8.57l-9-.62c-.68-2-.67-5.4-.47-10.14l0-.65c.2-4.88-.91-7.31-8-7.78Zm.31-7.73,7.94.54c5.15.34,7.27-1.54,7.42-5.24s-2.12-5.88-6.76-6.19l-8.13-.54Z"/><path class="cls-24" d="M2481.71,1676.27l-13.4-.89.32-7.94,36.3,2.4-.33,8-13.37-.89-1.51,37-9.52-.66Z"/><path class="cls-29" d="M1859.11,1592.7c-.12-38.55-75-67.06-75-67.06s-65.23-89.58-92-133.87c-49.19,19.22-61.75,45.28-56.48,92,24.42-21.56,63,22.66,109.08,101.64Z"/><path class="cls-29" d="M1635.55,1483.77l12,99.53,7.76.49c4-44.29,10.88-94.38,36-76.83C1693,1467.25,1636.36,1464.12,1635.55,1483.77Z"/><path class="cls-27" d="M1925.11,2341.19l-415.49-48.31c-11.34-1.32-20.1-12.42-19.59-24.8L1506.1,1875c.51-12.37,10.11-21.63,21.46-20.68l416,35c12.07,1,21.44,12.21,20.92,25l-16.61,406.27C1947.37,2333.36,1937.16,2342.59,1925.11,2341.19Z"/><polygon class="cls-28" points="2041.7 1901.24 2039.51 1954.97 2534.96 1998.68 2537.24 1943.09 2041.7 1901.24"/><polygon class="cls-28" points="2038.35 1983.29 2036.15 2037.01 2488.18 2079.51 2490.44 2024.08 2038.35 1983.29"/><polygon class="cls-28" points="2034.99 2065.33 2032.8 2119.05 2390.33 2154.73 2392.59 2099.66 2034.99 2065.33"/><path class="cls-25" d="M2498.11,2407.81l-451.84-52.53c-10.37-1.21-18.4-11-18-21.91l4.21-102.9c.44-10.9,9.2-18.84,19.57-17.73l452,48c11,1.18,19.65,11.27,19.19,22.54L2519,2389.74C2518.51,2401,2509.16,2409.1,2498.11,2407.81Z"/><path class="cls-24" d="M2079.49,2302l-3.62,9.73-8.89-1,15.94-42.16,11.34,1.25,13.08,45.46-9.54-1.07-3-10.5Zm13.65-6.26c-2.59-9.61-4.23-15.72-5.1-19.78H2088c-1.21,4.2-3.55,10.83-6.24,18.51Z"/><path class="cls-24" d="M2114.48,2272l16.68,1.84c12.2,1.34,19.92,10.64,19.39,23.66-.52,12.82-8.74,21.64-21.61,20.19l-16.25-1.84Zm7.58,37.23,6.83.77c8.05.9,11.91-5,12.25-13.55.3-7.2-2.79-14.14-11-15l-6.89-.76Z"/><path class="cls-24" d="M2159.38,2277l16.79,1.84c12.27,1.35,20,10.69,19.51,23.75-.52,12.86-8.79,21.7-21.74,20.24l-16.36-1.85Zm7.64,37.35,6.86.77c8.1.91,12-5,12.33-13.59.3-7.22-2.81-14.18-11.09-15.1l-6.93-.76Z"/><path class="cls-24" d="M2227.68,2292.34l-13-1.43.32-7.82,35.11,3.86-.32,7.84-12.94-1.43-1.49,36.39-9.21-1Z"/><path class="cls-24" d="M2293.07,2313.81c-.5,12.37-8.1,22.19-22,20.62-13.48-1.53-20.07-12.41-19.55-25.13s8.68-21.89,22-20.43C2286,2290.25,2293.63,2300.21,2293.07,2313.81Zm-32-3.64c-.36,8.68,3,15.65,10.62,16.51,8.27.93,11.49-5.89,11.81-13.81.35-8.44-2.74-15.38-10.71-16.26C2265,2295.76,2261.39,2301.56,2261,2310.17Z"/><path class="cls-24" d="M2352.63,2329.15c-2,8.16-8.38,13.55-19.24,12.32-13.71-1.55-19.75-12.28-19.23-24.92.5-12.2,7.64-22.37,21.55-20.84,11.54,1.27,16.85,8.8,17.62,16.43l-9.37-1c-.79-3.6-3-7.28-8.87-7.93-7.71-.85-11,6-11.28,14.13-.31,7.49,1.93,15.72,10.27,16.66,6.15.69,8.2-3.3,9.13-5.86Z"/><path class="cls-24" d="M2367.84,2334.37l-3.76,9.92-9.25-1,16.55-43,11.8,1.29,13.65,46.42-9.92-1.12-3.18-10.71ZM2382,2328c-2.7-9.81-4.41-16.05-5.32-20.19h-.06c-1.25,4.29-3.68,11-6.47,18.87Z"/><path class="cls-24" d="M2412.38,2331.74l-.74,17.93-9.24-1.05,1.83-44.73,19.2,2.11c9.53,1.05,14.46,6.95,14.18,13.91-.25,6-3.56,8.89-6.79,9.9,2.12,1.09,5.33,3.73,5,11.8l-.09,2.21c-.12,3-.26,6.45.29,8.6l-9-1c-.69-2-.67-5.43-.48-10.18l0-.65c.2-4.88-.92-7.35-8-8.14Zm.31-7.74,7.93.89c5.14.57,7.26-1.22,7.41-4.93s-2.12-6-6.75-6.49l-8.12-.9Z"/><path class="cls-24" d="M2455.48,2317.51l-13.37-1.48.32-7.94,36.23,4-.32,8-13.35-1.47-1.51,37-9.51-1.07Z"/><path class="cls-29" d="M1760,1957.37a78.68,78.68,0,0,1-2.69-17.18l-4.33-.38a64.54,64.54,0,0,1-2.5,13.4c-3.51,11.67-12.39,19.9-22.48,19.56-10-1.5-18.13-11.26-20.65-23.43a67.67,67.67,0,0,1-1.38-13.72l-4.29-.38a74.37,74.37,0,0,1-4,16.51,83.58,83.58,0,0,1-21.83,31.81l4,68.33,42.85,4.17,3.76.37,43.13,4.21,9.7-67.5A96,96,0,0,1,1760,1957.37Z"/><path class="cls-29" d="M1818,2245.21c-20.22,18.69-177.49,3.18-200-22.07,13.18-62.71,29.59-123,61.82-171.26l89.79,8.76C1795.22,2108,1808.3,2174,1818,2245.21Z"/><path class="cls-29" d="M1741.05,2073.7c-2.85,0-6-.15-9.37-.48-36.37-3.57-52.83-21.55-53.52-22.31a1.41,1.41,0,0,1,.11-2,1.4,1.4,0,0,1,2,.11c.16.17,16.5,17.93,51.71,21.39,31.39,3.07,36.27-10.1,36.32-10.23a1.41,1.41,0,0,1,1.77-.89,1.4,1.4,0,0,1,.89,1.76C1770.76,2061.64,1766.56,2073.7,1741.05,2073.7Z"/><path class="cls-29" d="M1727.17,2099a3.79,3.79,0,0,1-3.15-2c-6.15-9.19,10.89-23.94,12.86-25.6l3.14-2.64-.87,4c-1.27,5.88-5.86,25.15-11.4,26.21A3.48,3.48,0,0,1,1727.17,2099Zm8.2-22.43c-5.32,5.26-12.29,13.95-9,18.84.34.51.68.81.88.78C1729.38,2095.74,1732.89,2086.35,1735.37,2076.53Z"/><path class="cls-29" d="M1736.16,2075.77l.22-3.45c0-.88,1.44-21.56,9.39-27.44a7.86,7.86,0,0,1,6.77-1.38c2.9.7,3.9,2.38,4.24,3.67,2,7.76-16,24.4-18.06,26.28Zm14.37-29.71a5.15,5.15,0,0,0-3.1,1.07c-4.74,3.51-7,14.75-7.9,21.7,7-6.86,15.58-16.88,14.53-21-.13-.51-.5-1.24-2.17-1.64A6,6,0,0,0,1750.53,2046.06Z"/><path class="cls-29" d="M1762.38,2099.41a1.42,1.42,0,0,1-1.31-.89,46.14,46.14,0,0,0-23.79-24.8,1.4,1.4,0,1,1,1-2.62,48.24,48.24,0,0,1,25.4,26.39,1.41,1.41,0,0,1-.79,1.82A1.32,1.32,0,0,1,1762.38,2099.41Z"/><path class="cls-30" d="M1288,1685.1c-.26,0-.52,0-.78,0L679.3,1644.81a11.72,11.72,0,0,1-10.65-14.31c25.93-113,58.79-185.62,100.47-222a11.69,11.69,0,0,1,8.38-2.87l610.35,35.51a11.72,11.72,0,0,1,8.42,19.08c-51.08,63-83.64,135.38-96.76,215.07A11.71,11.71,0,0,1,1288,1685.1Zm-593.31-62.76L1278.23,1661a476.51,476.51,0,0,1,86.06-197.75l-583.23-33.94C746.86,1461.66,717.83,1526.52,694.65,1622.34Z"/><path class="cls-31" d="M1362.9,1438.25c-2-5.85-5.77-11.82-11.52-12.4l-552-34.31c-23.27,4.19-23.28,50.8-3.15,52.1l552,34.31c6.62-1.36,10.94-6.33,13.58-14.14C1351.38,1463.42,1348.64,1438.46,1362.9,1438.25Z"/><path class="cls-32" d="M688.79,2854h0A41.9,41.9,0,0,1,647,2812.25v-74.59a41.9,41.9,0,0,1,41.77-41.78h0a41.9,41.9,0,0,1,41.78,41.78v74.59A41.9,41.9,0,0,1,688.79,2854Z"/><polygon class="cls-33" points="647.02 2737.66 647.02 2835.91 653.63 2831.26 653.63 2729.66 647.02 2737.66"/><path class="cls-34" d="M680.62,2743.73s40.77-9.61,59.71,27.86-37.3,101.32-51.2,103.83-40.25-.55-52.53-25S649.24,2757.1,680.62,2743.73Z"/><ellipse class="cls-34" cx="674.44" cy="2804.44" rx="63.42" ry="42.17" transform="translate(-2189.05 2457.79) rotate(-69.58)"/><ellipse class="cls-34" cx="700.61" cy="2814.18" rx="63.42" ry="42.17" transform="translate(-2181.14 2488.65) rotate(-69.58)"/><ellipse class="cls-32" cx="700.61" cy="2814.18" rx="52.96" ry="35.22" transform="translate(-2181.14 2488.66) rotate(-69.58)"/><path class="cls-32" d="M630.45,2735.2h-.14v-1.38A7.1,7.1,0,0,0,630.45,2735.2Z"/><path class="cls-33" d="M688.79,2695.88h0c-23,0-41.77,18.5-41.77,41.11l6.61,12.88c0-23.09,34.57-23,34.57,0l.59,81c0,22.86,39.8,6.76,41.78-17.94V2737C730.57,2714.38,711.77,2695.88,688.79,2695.88Z"/><rect class="cls-35" x="108.71" y="2602.76" width="76.99" height="145.73" rx="38.5"/><polygon class="cls-33" points="108.71 2641.26 108.71 2731.8 114.81 2727.51 114.81 2633.89 108.71 2641.26"/><path class="cls-34" d="M139.68,2646.85s37.57-8.85,55,25.68-34.37,93.36-47.18,95.67-37.09-.5-48.41-23S110.76,2659.17,139.68,2646.85Z"/><ellipse class="cls-34" cx="133.99" cy="2702.8" rx="58.44" ry="38.86" transform="translate(-2445.64 1885.14) rotate(-69.58)"/><ellipse class="cls-34" cx="158.1" cy="2711.77" rx="58.44" ry="38.86" transform="translate(-2438.36 1913.58) rotate(-69.58)"/><ellipse class="cls-32" cx="158.1" cy="2711.77" rx="48.8" ry="32.45" transform="translate(-2438.36 1913.58) rotate(-69.58)"/><path class="cls-32" d="M93.45,2639h-.13v-1.26A6.65,6.65,0,0,0,93.45,2639Z"/><path class="cls-33" d="M147.21,2602.76h0c-21.17,0-38.5,17-38.5,37.88l6.09,11.88c0-21.28,31.87-21.23,31.87,0l.54,74.62c0,21.07,36.67,6.23,38.5-16.53v-70C185.71,2619.81,168.38,2602.76,147.21,2602.76Z"/><path class="cls-35" d="M659.74,2512.69h0a34.45,34.45,0,0,1-34.35-34.35V2417a34.45,34.45,0,0,1,34.35-34.35h0A34.45,34.45,0,0,1,694.09,2417v61.33A34.45,34.45,0,0,1,659.74,2512.69Z"/><polygon class="cls-33" points="625.39 2417.01 625.39 2497.8 630.82 2493.97 630.82 2410.44 625.39 2417.01"/><path class="cls-34" d="M653,2422s33.52-7.9,49.09,22.91-30.66,83.3-42.1,85.37-33.09-.45-43.19-20.56S627.22,2433,653,2422Z"/><ellipse class="cls-34" cx="647.94" cy="2471.92" rx="52.14" ry="34.67" transform="translate(-1894.68 2216.47) rotate(-69.57)"/><ellipse class="cls-34" cx="669.45" cy="2479.93" rx="52.14" ry="34.67" transform="translate(-1888.19 2241.85) rotate(-69.58)"/><ellipse class="cls-32" cx="669.45" cy="2479.93" rx="43.54" ry="28.96" transform="translate(-1888.19 2241.85) rotate(-69.58)"/><path class="cls-32" d="M611.76,2415h-.11v-1.13A6,6,0,0,0,611.76,2415Z"/><path class="cls-33" d="M659.74,2382.66h0c-18.9,0-34.35,15.21-34.35,33.8l5.43,10.59c0-19,28.43-18.94,28.43,0l.49,66.59c0,18.8,32.72,5.56,34.35-14.75v-62.43C694.09,2397.87,678.63,2382.66,659.74,2382.66Z"/><path class="cls-35" d="M1228.48,2586.79h0a34.44,34.44,0,0,1-34.35-34.35v-61.32a34.44,34.44,0,0,1,34.35-34.35h0a34.45,34.45,0,0,1,34.35,34.35v61.32A34.45,34.45,0,0,1,1228.48,2586.79Z"/><polygon class="cls-33" points="1194.13 2491.11 1194.13 2571.9 1199.56 2568.07 1199.56 2484.54 1194.13 2491.11"/><path class="cls-34" d="M1221.76,2496.11s33.52-7.91,49.09,22.9-30.66,83.31-42.1,85.37-33.09-.45-43.19-20.55S1196,2507.1,1221.76,2496.11Z"/><ellipse class="cls-34" cx="1216.68" cy="2546.02" rx="52.14" ry="34.67" transform="translate(-1593.87 2797.69) rotate(-69.57)"/><ellipse class="cls-34" cx="1238.19" cy="2554.03" rx="52.14" ry="34.67" transform="translate(-1587.37 2823.08) rotate(-69.58)"/><ellipse class="cls-32" cx="1238.19" cy="2554.03" rx="43.54" ry="28.96" transform="translate(-1587.37 2823.09) rotate(-69.58)"/><path class="cls-32" d="M1180.51,2489.09h-.12V2488A5.35,5.35,0,0,0,1180.51,2489.09Z"/><path class="cls-33" d="M1228.48,2456.77h0c-18.9,0-34.35,15.2-34.35,33.79l5.43,10.6c0-19,28.43-18.94,28.43,0l-6.34,64.51c0,18.79,39.55,7.63,41.18-12.67v-62.44C1262.83,2472,1247.37,2456.77,1228.48,2456.77Z"/><path class="cls-36" d="M590.83,2747a143.37,143.37,0,0,1-27.76-2.73L125.25,2657.7a29.88,29.88,0,0,1-5.1-57.13l503-196.81A80.47,80.47,0,0,0,672.81,2313l-25.48-127.65a12.62,12.62,0,0,1,14-15l573.63,73.33a12.62,12.62,0,0,1,10.68,9.64l25.67,109.58a106.11,106.11,0,0,1-60,120L648.81,2734.55A141.74,141.74,0,0,1,590.83,2747Zm84.67-549.41,22,110.46a105.65,105.65,0,0,1-65.19,119.2l-503,196.82a4.65,4.65,0,0,0,.8,8.89L568,2719.52a116.5,116.5,0,0,0,70.55-8L1201,2459.87a80.8,80.8,0,0,0,45.67-91.32l-23.65-101Z"/><path class="cls-30" d="M1260.89,2261a4.73,4.73,0,0,1-.65,0L634.4,2183.73a5.32,5.32,0,0,1-4.66-5.68l40.75-549.72a5.32,5.32,0,0,1,5.65-4.92L1302,1663.67a5.34,5.34,0,0,1,5,5.69l-40.75,586.72a5.34,5.34,0,0,1-5.32,5Zm-620.15-87.26,615.23,76L1296,1674l-615.24-39.58Z"/><rect class="cls-30" x="972.45" y="1517.23" width="6.39" height="628" transform="translate(-929.21 2653.94) rotate(-85.31)"/><rect class="cls-30" x="958.24" y="1714.75" width="6.39" height="629.06" transform="translate(-1149.81 2794.14) rotate(-84.56)"/><path class="cls-30" d="M697.09,2187.63h-.15a1.7,1.7,0,0,1-1.55-1.84L741.11,1632a1.71,1.71,0,0,1,3.4.29l-45.73,553.76A1.71,1.71,0,0,1,697.09,2187.63Z"/><path class="cls-30" d="M777.77,2197.62h-.14a1.71,1.71,0,0,1-1.56-1.83L821,1637.33a1.71,1.71,0,0,1,3.4.27l-44.94,558.45A1.71,1.71,0,0,1,777.77,2197.62Z"/><path class="cls-30" d="M859.81,2207.78h-.13a1.7,1.7,0,0,1-1.57-1.83l44.13-563.21a1.67,1.67,0,0,1,1.83-1.56,1.7,1.7,0,0,1,1.57,1.83l-44.13,563.2A1.71,1.71,0,0,1,859.81,2207.78Z"/><path class="cls-30" d="M943.24,2218.11h-.13a1.7,1.7,0,0,1-1.57-1.83l43.28-568a1.7,1.7,0,1,1,3.39.26l-43.27,568.05A1.71,1.71,0,0,1,943.24,2218.11Z"/><path class="cls-30" d="M1028.09,2228.61H1028a1.7,1.7,0,0,1-1.57-1.83l42.39-573a1.7,1.7,0,0,1,3.4.25l-42.39,573A1.71,1.71,0,0,1,1028.09,2228.61Z"/><path class="cls-30" d="M1114.4,2239.3h-.13a1.7,1.7,0,0,1-1.58-1.82l41.48-578a1.7,1.7,0,1,1,3.4.24l-41.48,578A1.7,1.7,0,0,1,1114.4,2239.3Z"/><path class="cls-30" d="M1202.2,2250.17h-.12a1.7,1.7,0,0,1-1.58-1.82L1241,1665.27a1.7,1.7,0,1,1,3.4.23l-40.51,583.08A1.7,1.7,0,0,1,1202.2,2250.17Z"/><path class="cls-37" d="M1115.06,1955.18l-295.31-25.61a19.79,19.79,0,0,1-18-21.22l13.49-177.67,333.94,22.57-12.63,183.57A19.8,19.8,0,0,1,1115.06,1955.18Z"/><path class="cls-30" d="M113.87,2367.24a1.69,1.69,0,0,1-1.69-1.52l-55-501.63a1.71,1.71,0,1,1,3.39-.37l55,501.63a1.7,1.7,0,0,1-1.51,1.88Z"/><path class="cls-30" d="M161.33,2350.21a1.72,1.72,0,0,1-1.7-1.55L113,1842.77a1.7,1.7,0,1,1,3.39-.31L163,2348.34a1.72,1.72,0,0,1-1.54,1.86Z"/><path class="cls-30" d="M209,2333.1a1.7,1.7,0,0,1-1.7-1.58l-38.13-510.18a1.7,1.7,0,0,1,3.4-.25l38.13,510.18a1.7,1.7,0,0,1-1.57,1.83Z"/><path class="cls-30" d="M256.82,2315.93a1.7,1.7,0,0,1-1.7-1.61l-29.58-514.5a1.71,1.71,0,0,1,1.61-1.8,1.73,1.73,0,0,1,1.8,1.6l29.57,514.5a1.7,1.7,0,0,1-1.6,1.8Z"/><path class="cls-30" d="M304.86,2298.68a1.7,1.7,0,0,1-1.7-1.63l-21-518.86a1.7,1.7,0,1,1,3.4-.14l20.95,518.86a1.7,1.7,0,0,1-1.63,1.77Z"/><path class="cls-30" d="M353.09,2281.37a1.71,1.71,0,0,1-1.7-1.67l-12.25-523.25a1.71,1.71,0,0,1,3.41-.08l12.25,523.25a1.71,1.71,0,0,1-1.67,1.75Z"/><path class="cls-30" d="M401.52,2264a1.69,1.69,0,0,1-1.7-1.69l-3.46-527.68a1.69,1.69,0,0,1,1.69-1.71h0a1.69,1.69,0,0,1,1.7,1.69l3.47,527.68a1.71,1.71,0,0,1-1.7,1.71Z"/><path class="cls-30" d="M450.15,2246.53h0a1.71,1.71,0,0,1-1.69-1.72l5.4-532.14a1.71,1.71,0,0,1,1.71-1.69h0a1.7,1.7,0,0,1,1.68,1.72l-5.4,532.14A1.7,1.7,0,0,1,450.15,2246.53Z"/><path class="cls-30" d="M499,2229h-.05a1.71,1.71,0,0,1-1.66-1.75l14.34-536.63a1.69,1.69,0,0,1,1.75-1.66,1.71,1.71,0,0,1,1.66,1.75l-14.34,536.63A1.7,1.7,0,0,1,499,2229Z"/><path class="cls-30" d="M548,2211.4h-.07a1.71,1.71,0,0,1-1.63-1.78l23.36-541.16a1.69,1.69,0,0,1,1.78-1.63,1.71,1.71,0,0,1,1.63,1.78L549.7,2209.77A1.69,1.69,0,0,1,548,2211.4Z"/><path class="cls-30" d="M597.23,2193.73h-.1a1.71,1.71,0,0,1-1.6-1.81L628,1646.2a1.72,1.72,0,0,1,1.81-1.6,1.7,1.7,0,0,1,1.6,1.8l-32.47,545.73A1.7,1.7,0,0,1,597.23,2193.73Z"/><path class="cls-30" d="M66.18,2388a5.34,5.34,0,0,1-5.29-4.69L0,1885a5.32,5.32,0,0,1,3.39-5.62l670.47-255.6a5.33,5.33,0,0,1,7.21,5.38l-40.75,549.72a5.31,5.31,0,0,1-3.51,4.62L68,2387.67A5.38,5.38,0,0,1,66.18,2388ZM11.12,1887.81l59.53,487.58L630,2174.6l39.88-537.92Z"/><rect class="cls-30" x="3.13" y="1919.97" width="681.13" height="6.39" transform="translate(-650.28 241.29) rotate(-20.45)"/><rect class="cls-30" x="27.27" y="2107.38" width="640.92" height="6.39" transform="translate(-709.91 251.32) rotate(-20.28)"/><path class="cls-30" d="M677.35,2466.72a1.53,1.53,0,0,1-.3,0L115.36,2366.57a1.7,1.7,0,1,1,.6-3.35l561.69,100.12a1.69,1.69,0,0,1,1.38,2A1.71,1.71,0,0,1,677.35,2466.72Z"/><path class="cls-30" d="M732.44,2447l-.29,0L165,2348.83a1.7,1.7,0,1,1,.58-3.36l567.19,98.1a1.71,1.71,0,0,1-.29,3.39Z"/><path class="cls-30" d="M787.52,2427.21a1.43,1.43,0,0,1-.29,0l-572.69-96.09a1.7,1.7,0,1,1,.57-3.36l572.69,96.09a1.71,1.71,0,0,1-.28,3.39Z"/><path class="cls-30" d="M842.57,2407.46l-.27,0-578.19-94.08a1.71,1.71,0,1,1,.55-3.37l578.18,94.08a1.71,1.71,0,0,1-.27,3.39Z"/><path class="cls-30" d="M897.61,2387.72l-.27,0-583.67-92.07a1.71,1.71,0,0,1,.53-3.37l583.68,92.07a1.71,1.71,0,0,1-.27,3.39Z"/><path class="cls-30" d="M952.63,2368a1.18,1.18,0,0,1-.26,0L363.21,2277.9a1.7,1.7,0,1,1,.52-3.37l589.16,90.06a1.7,1.7,0,0,1-.26,3.39Z"/><path class="cls-30" d="M1007.64,2348.25a1.06,1.06,0,0,1-.25,0l-594.65-88.05a1.7,1.7,0,1,1,.5-3.37l594.65,88.05a1.7,1.7,0,0,1-.25,3.39Z"/><path class="cls-30" d="M1062.63,2328.53l-.24,0-600.13-86a1.71,1.71,0,1,1,.48-3.38l600.13,86a1.7,1.7,0,0,1-.24,3.39Z"/><path class="cls-30" d="M1117.6,2308.81h-.23l-605.61-84a1.71,1.71,0,1,1,.47-3.38l605.61,84a1.7,1.7,0,0,1-.24,3.39Z"/><path class="cls-30" d="M1172.56,2289.1h-.23l-611.08-82a1.7,1.7,0,1,1,.45-3.38l611.08,82a1.7,1.7,0,0,1-.22,3.39Z"/><path class="cls-30" d="M1227.5,2269.39h-.22l-616.56-80a1.7,1.7,0,1,1,.44-3.38l616.56,80a1.7,1.7,0,0,1-.22,3.39Z"/><rect class="cls-30" x="220.85" y="2303.71" width="620.61" height="6.39" transform="translate(-750.93 316.88) rotate(-19.83)"/><rect class="cls-30" x="420.49" y="2333.63" width="629.69" height="6.39" transform="translate(-767.1 401.84) rotate(-20.36)"/><path class="cls-30" d="M636.19,2487.24a7.66,7.66,0,0,1-1.26-.11L64.92,2390a7.46,7.46,0,0,1-1.26-14.37l568.87-204.21a7.41,7.41,0,0,1,3.43-.38l625.84,77.26a7.46,7.46,0,0,1,1.61,14.42L638.7,2486.8A7.45,7.45,0,0,1,636.19,2487.24ZM95.43,2380.08l540.08,92,593.36-212.83-593-73.2Z"/><polygon class="cls-38" points="500.12 2315.14 207.42 2253.43 207.42 1916.56 500.12 1969.53 500.12 2315.14"/><polygon class="cls-39" points="207.42 1916.56 328.82 1877.19 418.88 1852.45 697.56 1899.96 500.12 1969.53 207.42 1916.56"/><polygon class="cls-38" points="500.12 2315.14 693.34 2234.6 697.56 1899.96 500.12 1969.53 500.12 2315.14"/><path class="cls-40" d="M616.82,1930.33h-.1l-288-52.59a.55.55,0,1,1,.2-1.08l288,52.6a.54.54,0,0,1,.44.63A.55.55,0,0,1,616.82,1930.33Z"/><path class="cls-40" d="M501.64,1970.84a.55.55,0,0,1-.18-1.06l195-68.57a.54.54,0,0,1,.69.33.55.55,0,0,1-.33.7l-195,68.57A.63.63,0,0,1,501.64,1970.84Z"/><polygon class="cls-41" points="314.03 1882.21 599.07 1935.74 599.07 2011.37 628.5 1997.54 630.58 1925.01 348.31 1872.17 314.03 1882.21"/><polygon class="cls-38" points="915.26 2324.34 622.57 2262.63 622.57 1925.76 915.26 1978.73 915.26 2324.34"/><polygon class="cls-39" points="622.57 1925.76 743.97 1886.38 834.02 1861.65 1112.71 1909.16 915.26 1978.73 622.57 1925.76"/><polygon class="cls-42" points="915.26 2324.34 1108.49 2243.8 1112.71 1909.16 915.26 1978.73 915.26 2324.34"/><path class="cls-40" d="M1032,1939.53h-.1l-288-52.6a.54.54,0,0,1-.44-.63.55.55,0,0,1,.63-.45l288,52.6a.55.55,0,0,1-.1,1.09Z"/><path class="cls-40" d="M916.79,1980a.54.54,0,0,1-.51-.37.55.55,0,0,1,.33-.7l195-68.57a.55.55,0,0,1,.37,1L917,1980Z"/><polygon class="cls-41" points="729.18 1891.4 1014.22 1944.93 1014.22 2020.57 1043.65 2006.73 1045.72 1934.2 763.45 1881.37 729.18 1891.4"/><polygon class="cls-43" points="846.82 1966.34 1013.46 1923.99 678.53 1912.68 678.53 1957.48 622.57 1945.2 622.57 2262.63 819.87 2298.53 846.82 1966.34"/><polygon class="cls-42" points="622.42 2413.66 329.73 2351.95 329.73 2015.08 622.42 2068.05 622.42 2413.66"/><polygon class="cls-39" points="329.73 2015.08 451.13 1975.7 541.18 1950.97 819.87 1998.48 622.42 2068.05 329.73 2015.08"/><polygon class="cls-38" points="622.42 2413.66 815.65 2333.12 819.87 1998.48 622.42 2068.05 622.42 2413.66"/><path class="cls-40" d="M739.13,2028.85H739l-288-52.6a.54.54,0,1,1,.19-1.07l288,52.59a.55.55,0,0,1-.1,1.09Z"/><path class="cls-40" d="M624,2069.36a.54.54,0,0,1-.51-.37.55.55,0,0,1,.33-.7l195-68.57a.55.55,0,0,1,.7.34.56.56,0,0,1-.33.7l-195,68.57Z"/><polygon class="cls-41" points="436.34 1980.72 721.38 2034.26 721.38 2109.89 750.81 2096.05 752.88 2023.53 470.61 1970.69 436.34 1980.72"/><polygon class="cls-43" points="329.73 2077.28 519.23 2077.28 544.78 2054 712.53 1981.88 541.18 1950.97 329.73 2015.08 329.73 2077.28"/><polygon class="cls-42" points="774.01 1974.47 1013.46 1923.99 1013.46 1648.39 774.01 1691.72 774.01 1974.47"/><polygon class="cls-39" points="1013.46 1648.39 914.15 1616.17 840.47 1595.93 612.47 1634.81 774.01 1691.72 1013.46 1648.39"/><polygon class="cls-44" points="774.01 1974.47 615.92 1908.58 612.47 1634.81 774.01 1691.72 774.01 1974.47"/><polygon class="cls-43" points="813.35 1684.6 774.01 1714.81 716.05 1754.65 712.53 1948.85 682.97 1936.01 682.97 1658.85 774.01 1691.72 813.35 1684.6"/><path class="cls-40" d="M678.53,1659.65a.45.45,0,0,1-.08-.89l235.62-43a.46.46,0,0,1,.52.36.45.45,0,0,1-.36.52l-235.62,43Z"/><path class="cls-40" d="M772.76,1692.79l-.15,0-159.51-56.1a.45.45,0,0,1,.3-.85l159.5,56.1a.45.45,0,0,1-.14.87Z"/><polygon class="cls-41" points="926.24 1620.28 693.05 1664.07 693.05 1725.95 668.97 1714.63 667.27 1655.3 898.21 1612.07 926.24 1620.28"/><polygon class="cls-42" points="529.7 2060.48 276.27 2007.05 276.27 1715.37 529.7 1761.23 529.7 2060.48"/><polygon class="cls-39" points="276.27 1715.37 381.38 1681.27 459.36 1659.85 700.66 1700.99 529.7 1761.23 276.27 1715.37"/><polygon class="cls-38" points="529.7 2060.48 697.01 1990.74 700.66 1700.99 529.7 1761.23 529.7 2060.48"/><path class="cls-40" d="M630.76,1727.29h-.09L381.3,1681.74a.47.47,0,0,1-.38-.55.46.46,0,0,1,.55-.38l249.37,45.54a.46.46,0,0,1,.38.55A.47.47,0,0,1,630.76,1727.29Z"/><path class="cls-40" d="M531,1762.36a.47.47,0,0,1-.16-.92l168.81-59.37a.47.47,0,1,1,.32.89l-168.81,59.38Z"/><polygon class="cls-41" points="368.58 1685.62 615.39 1731.97 615.39 1797.46 640.87 1785.48 642.66 1722.68 398.26 1676.93 368.58 1685.62"/><polygon class="cls-43" points="479.5 1667.03 465.11 1670.99 597.71 1737.78 699.84 1842.26 700.66 1700.99 479.5 1667.03"/><polygon class="cls-42" points="597.71 1737.78 812.97 1692.4 812.97 1444.64 597.71 1483.6 597.71 1737.78"/><polygon class="cls-39" points="812.97 1444.64 723.69 1415.68 657.45 1397.49 452.49 1432.44 597.71 1483.6 812.97 1444.64"/><polygon class="cls-38" points="597.71 1737.78 455.6 1678.55 452.49 1432.44 597.71 1483.6 597.71 1737.78"/><path class="cls-40" d="M511.87,1454.77a.4.4,0,0,1-.07-.8l211.81-38.68a.39.39,0,0,1,.47.32.4.4,0,0,1-.32.47L512,1454.76Z"/><path class="cls-40" d="M596.58,1484.56a.3.3,0,0,1-.13,0l-143.39-50.43a.42.42,0,0,1-.25-.52.41.41,0,0,1,.52-.24l143.38,50.43a.4.4,0,0,1,.25.51A.4.4,0,0,1,596.58,1484.56Z"/><polygon class="cls-41" points="734.56 1419.38 524.93 1458.75 524.93 1514.37 503.28 1504.19 501.76 1450.86 709.35 1411.99 734.56 1419.38"/><path class="cls-30" d="M122.12,2393.9a1.71,1.71,0,0,1-1.69-1.51l-59.76-501a1.7,1.7,0,1,1,3.38-.4l59.77,501a1.7,1.7,0,0,1-1.49,1.89Z"/><path class="cls-30" d="M195.51,2406.4a1.71,1.71,0,0,1-1.69-1.51l-56.68-504.32a1.71,1.71,0,0,1,3.39-.38l56.68,504.32a1.71,1.71,0,0,1-1.5,1.88Z"/><path class="cls-30" d="M270,2419.09a1.71,1.71,0,0,1-1.7-1.52l-53.5-507.67a1.7,1.7,0,0,1,3.39-.35l53.5,507.66a1.69,1.69,0,0,1-1.51,1.87Z"/><path class="cls-30" d="M345.62,2432a1.71,1.71,0,0,1-1.69-1.54l-50.21-511.06a1.7,1.7,0,0,1,3.39-.33l50.21,511.06a1.7,1.7,0,0,1-1.53,1.86Z"/><path class="cls-30" d="M422.39,2445.06a1.7,1.7,0,0,1-1.69-1.55L373.89,1929a1.7,1.7,0,1,1,3.39-.31l46.81,514.49a1.7,1.7,0,0,1-1.54,1.85Z"/><path class="cls-30" d="M500.34,2458.34a1.71,1.71,0,0,1-1.7-1.57l-43.29-518a1.7,1.7,0,1,1,3.39-.28l43.3,518a1.7,1.7,0,0,1-1.56,1.84Z"/><path class="cls-30" d="M579.49,2471.82a1.71,1.71,0,0,1-1.7-1.57l-39.66-521.5a1.7,1.7,0,0,1,3.4-.26L581.19,2470a1.7,1.7,0,0,1-1.57,1.83Z"/><path class="cls-30" d="M636.19,2485.11a5.47,5.47,0,0,1-.9-.08l-570-97.12a5.33,5.33,0,0,1-4.39-4.61L0,1885A5.33,5.33,0,0,1,6,1879l596.4,71.75a5.33,5.33,0,0,1,4.68,4.93l34.46,523.72a5.34,5.34,0,0,1-5.31,5.68ZM71,2378.07l559.45,95.32L596.7,1960.83,11.44,1890.42Z"/><rect class="cls-30" x="318.76" y="1789.95" width="6.39" height="593.57" transform="translate(-1789.47 2091.73) rotate(-81.36)"/><rect class="cls-30" x="332.86" y="1973.32" width="6.39" height="584.45" transform="translate(-1954.26 2257.64) rotate(-81.36)"/><path class="cls-30" d="M636.19,2485.11a5.35,5.35,0,0,1-5.32-5l-34.46-523.72a5.32,5.32,0,0,1,3.29-5.27l699.92-287.08a5.33,5.33,0,0,1,7.34,5.3l-40.75,586.72a5.35,5.35,0,0,1-3.52,4.65L638,2484.79A5.28,5.28,0,0,1,636.19,2485.11Zm-28.9-525.57L641,2472.38l614.78-220.51,39.91-574.7Z"/><rect class="cls-30" x="586.92" y="1992.19" width="727.82" height="6.39" transform="translate(-676.48 499.55) rotate(-21.93)"/><rect class="cls-30" x="601.67" y="2181.01" width="696.18" height="6.39" transform="translate(-722.16 487.89) rotate(-21.08)"/><path class="cls-30" d="M689.57,2462.33a1.7,1.7,0,0,1-1.7-1.58l-35.57-526a1.7,1.7,0,1,1,3.4-.23l35.57,526a1.69,1.69,0,0,1-1.58,1.81Z"/><path class="cls-30" d="M739.44,2444.45a1.71,1.71,0,0,1-1.7-1.61L708.6,1911.62a1.7,1.7,0,0,1,1.61-1.79,1.72,1.72,0,0,1,1.8,1.61l29.14,531.21a1.7,1.7,0,0,1-1.61,1.79Z"/><path class="cls-30" d="M789.79,2426.39a1.7,1.7,0,0,1-1.7-1.63l-22.57-536.5a1.7,1.7,0,1,1,3.4-.15l22.57,536.5a1.71,1.71,0,0,1-1.63,1.78Z"/><path class="cls-30" d="M840.62,2408.16a1.71,1.71,0,0,1-1.71-1.66l-15.86-541.86a1.7,1.7,0,1,1,3.4-.1l15.87,541.86a1.7,1.7,0,0,1-1.65,1.76Z"/><path class="cls-30" d="M891.94,2389.75a1.71,1.71,0,0,1-1.71-1.68l-9-547.31a1.71,1.71,0,0,1,3.41-.06l9,547.32a1.69,1.69,0,0,1-1.67,1.73Z"/><path class="cls-30" d="M943.75,2371.17a1.7,1.7,0,0,1-1.7-1.7l-2-552.85a1.71,1.71,0,0,1,1.7-1.71h0a1.7,1.7,0,0,1,1.7,1.7l2,552.84a1.72,1.72,0,0,1-1.7,1.72Z"/><path class="cls-30" d="M996.07,2352.4h0a1.71,1.71,0,0,1-1.69-1.72l5.09-558.47a1.72,1.72,0,0,1,1.71-1.69h0a1.7,1.7,0,0,1,1.68,1.73l-5.09,558.46A1.71,1.71,0,0,1,996.07,2352.4Z"/><path class="cls-30" d="M1048.91,2333.45h0a1.71,1.71,0,0,1-1.67-1.74l12.38-564.17a1.69,1.69,0,0,1,1.74-1.67,1.71,1.71,0,0,1,1.67,1.74l-12.38,564.17A1.71,1.71,0,0,1,1048.91,2333.45Z"/><path class="cls-30" d="M1102.26,2314.32h-.06a1.71,1.71,0,0,1-1.65-1.76l19.82-570a1.7,1.7,0,0,1,3.4.12l-19.81,570A1.71,1.71,0,0,1,1102.26,2314.32Z"/><path class="cls-30" d="M1156.14,2295h-.09a1.71,1.71,0,0,1-1.62-1.78l27.41-575.86a1.7,1.7,0,0,1,3.4.16l-27.4,575.86A1.71,1.71,0,0,1,1156.14,2295Z"/><path class="cls-30" d="M1210.55,2275.47h-.11a1.71,1.71,0,0,1-1.6-1.8L1244,1691.83a1.7,1.7,0,1,1,3.4.21l-35.15,581.83A1.71,1.71,0,0,1,1210.55,2275.47Z"/><ellipse class="cls-45" cx="2756.54" cy="264.27" rx="61.14" ry="17" transform="translate(2360.7 3005) rotate(-87.26)"/><ellipse class="cls-45" cx="2747.9" cy="444.52" rx="61.14" ry="17" transform="translate(2172.44 3168.01) rotate(-87.26)"/><g class="cls-46"><ellipse class="cls-47" cx="2053.77" cy="3000.87" rx="164.09" ry="77.31"/></g><g class="cls-48"><ellipse class="cls-49" cx="2564.07" cy="3073.05" rx="183.39" ry="93.01"/></g><g class="cls-50"><ellipse class="cls-51" cx="2101.22" cy="2739.12" rx="139.72" ry="70.87"/></g><path class="cls-52" d="M3717,1024.34l-766.38-56.88c-24.09-1.79-42.8-25.05-41.94-52l14.1-441.68c.86-26.92,21-48.73,45.16-48.73l768.19.18c29.66,0,53.08,24.42,52.12,54.53l-15.77,494C3771.46,1003.92,3746.54,1026.54,3717,1024.34Z"/><path class="cls-53" d="M3053,563.8l59.36,1.13.84-26.29c.28-8.76-6-15.94-13.92-16l-82.51-1.09-2,62.62c-.12,3.75-2,6.75-5.38,6.67h0c-3.37-.07-4.6-3.14-4.48-6.88l2-62.54-14.06-.19c-7.72-.1-14.19,6.78-14.47,15.38L2976,612l76.5,2a4.91,4.91,0,0,1,4.69,4.68c.18,3.05-2,5.56-4.75,5.48l-76.76-2.07-1,31.14c-.28,8.6,5.74,15.77,13.46,16l106.36,3.55c8,.27,14.65-6.62,14.93-15.37l2.62-82.08-59.62-1.21c-2.75,0-4.86-2.71-4.48-5.8A5.14,5.14,0,0,1,3053,563.8Z"/><polygon class="cls-54" points="3700.93 955.72 3512.07 943.28 3515.16 846.41 3704.1 856.54 3700.93 955.72"/><polygon class="cls-54" points="3124.8 730.01 2972.44 723.78 2971.1 765.86 3123.42 772.96 3124.8 730.01"/><polygon class="cls-54" points="3146.74 730.9 3145.36 773.98 3308.13 781.57 3309.53 737.56 3146.74 730.9"/><polygon class="cls-54" points="3522.71 746.27 3521.26 791.5 3704.82 800.05 3706.3 753.77 3522.71 746.27"/><polygon class="cls-54" points="3497.18 745.23 3335.64 738.62 3334.23 782.78 3495.74 790.31 3497.18 745.23"/><polygon class="cls-55" points="3459.51 901.49 2968.62 871.55 2970.35 817.22 3461.36 843.53 3459.51 901.49"/><polygon class="cls-54" points="3483.1 479.8 3716.07 481.47 3713.85 551.14 3480.94 547.47 3483.1 479.8"/><path class="cls-56" d="M1291.84,1160.46l-592.72-44c-18.63-1.38-33.1-19.37-32.44-40.19l10.91-341.59c.67-20.82,16.25-37.69,34.93-37.69l594.11.14c22.94,0,41.06,18.89,40.31,42.17l-12.2,382.08C1334,1144.67,1314.72,1162.16,1291.84,1160.46Z"/><path class="cls-57" d="M778.38,804.28l45.91.87.64-20.34c.22-6.77-4.61-12.32-10.77-12.41l-63.81-.84L748.8,820c-.09,2.9-1.55,5.22-4.16,5.16h0c-2.6-.06-3.55-2.43-3.46-5.32l1.55-48.37-10.88-.15c-6-.08-11,5.25-11.19,11.9l-1.86,58.37L778,843.1a3.94,3.94,0,0,1,0,7.86l-59.37-1.6-.77,24.08c-.21,6.65,4.45,12.2,10.42,12.4l82.25,2.75c6.16.2,11.33-5.12,11.55-11.89l2-63.48-46.12-.94a3.82,3.82,0,0,1-3.46-4.49A4,4,0,0,1,778.38,804.28Z"/><polygon class="cls-25" points="1279.45 1107.39 1133.39 1097.77 1135.78 1022.85 1281.9 1030.68 1279.45 1107.39"/><polygon class="cls-25" points="833.87 932.82 716.04 928.01 715 960.55 832.81 966.04 833.87 932.82"/><polygon class="cls-25" points="850.84 933.51 849.78 966.83 975.66 972.7 976.74 938.66 850.84 933.51"/><polygon class="cls-25" points="1141.61 945.4 1140.49 980.38 1282.46 986.99 1283.6 951.2 1141.61 945.4"/><polygon class="cls-25" points="1121.87 944.59 996.94 939.49 995.85 973.64 1120.76 979.46 1121.87 944.59"/><polygon class="cls-58" points="1092.73 1065.45 713.08 1042.29 714.42 1000.27 1094.17 1020.62 1092.73 1065.45"/><polygon class="cls-25" points="1110.98 739.31 1291.16 740.6 1289.44 794.49 1109.31 791.64 1110.98 739.31"/><path class="cls-59" d="M2196.48,2972c-21.73-28.42-79.45-48.73-147.25-48.73S1923.72,2943.59,1902,2972h-9.23v25c0,40.71,70,73.72,156.47,73.72s156.48-33,156.48-73.72v-25Z"/><ellipse class="cls-60" cx="2049.23" cy="2972.01" rx="156.47" ry="73.72"/><ellipse class="cls-61" cx="2049.23" cy="2972.01" rx="146.64" ry="69.09"/><path class="cls-60" d="M2049.23,3034.75c-35.88,0-69.64-6.45-95-18.16-25.67-11.84-39.8-27.67-39.8-44.58s14.13-32.75,39.8-44.58c25.4-11.72,59.16-18.17,95-18.17s69.64,6.45,95.05,18.17c25.66,11.83,39.8,27.66,39.8,44.58s-14.14,32.74-39.8,44.58C2118.87,3028.3,2085.12,3034.75,2049.23,3034.75Zm0-123.37c-73.18,0-132.72,27.2-132.72,60.63s59.54,60.62,132.72,60.62S2182,3005.44,2182,2972,2122.42,2911.38,2049.23,2911.38Z"/><ellipse class="cls-61" cx="2049.23" cy="2972.01" rx="130.61" ry="60.22"/><path class="cls-62" d="M2015.16,3001.69c.79-4.45-7.14-9-7.14-9s-9.2,2.68-10,7.14c-.7,4,5.69,8.11,6.94,8.87a125.15,125.15,0,0,1-23.93-8c1.51-.28,9.37-1.91,11.89-5.62,2.8-4.11-2-9.21-2-9.21s-9.35,1.56-12.14,5.67c-2.4,3.53.82,7.79,1.78,8.92a60.28,60.28,0,0,1-14.88-9.6l.6-.09a6.48,6.48,0,0,0-.54-.63c2-.3,8.89-1.5,11.87-4.64,3.53-3.7.3-8.69.3-8.69s-9,1-12.48,4.72c-2.49,2.61-1.61,5.86-.88,7.55a16.76,16.76,0,0,0-1.81-1.19,26.06,26.06,0,0,1-6-11.08c2.52,0,8.55-.29,13.1-2.43,5.9-2.77,7.06-7.63,7.06-7.63s-8.4-.36-14.3,2.42a13.43,13.43,0,0,0-6.23,5.68c0-.14,0-.27-.07-.4a20.68,20.68,0,0,1,2.1-11.88,39.53,39.53,0,0,0,14-1.4,20.65,20.65,0,0,0,9.78-6.43,39.78,39.78,0,0,0-14.24,1.38,21.67,21.67,0,0,0-9.06,5.59c2.56-4.72,6.89-9.14,12.81-13.11a49.23,49.23,0,0,0,13.65-.31,33.92,33.92,0,0,0,12.18-4.63,49.22,49.22,0,0,0-14.58.18,36.67,36.67,0,0,0-6.34,1.76,102.75,102.75,0,0,1,17.87-7.61,48.64,48.64,0,0,0,14-1.07,26.43,26.43,0,0,0,10.81-5.31,48.31,48.31,0,0,0-14.41,1,28.5,28.5,0,0,0-9.8,4.49,109.39,109.39,0,0,0-18,7.39,7,7,0,0,0,1.25-1.62c1.91-3.55-1.18-7.26-1.18-7.26s-6.18,2-8.08,5.6,1.17,7.26,1.17,7.26l.45-.16a42.62,42.62,0,0,0-11.12,10.39,4.3,4.3,0,0,0-1-2.89c-2.75-3.52-10.85-6-10.85-6s-3.65,3.17-.91,6.69c2.44,3.12,9.07,5.46,10.54,6a21,21,0,0,0-2.12,12,22.88,22.88,0,0,0,.43,2.31h0a25.46,25.46,0,0,0,5.16,10.1,24.62,24.62,0,0,0-5.49-1.55c-8.25-1.37-18.84.45-18.84.45s2.8,4.05,11,5.42c6.27,1,13.88.25,17.18-.19a58.26,58.26,0,0,0,12.1,8.25c12.45,6.53,29.66,11.33,49.77,13.86l.31-.53a208,208,0,0,1-21.46-3.79C2006.47,3008.44,2014.44,3005.83,2015.16,3001.69Z"/><path class="cls-62" d="M1987.68,3005.83c-9.67-.26-19.35,3.49-19.35,3.49a30.94,30.94,0,0,0,15.7,4.44c9.68.27,19.35-3.48,19.35-3.48A31,31,0,0,0,1987.68,3005.83Z"/><path class="cls-62" d="M1965,2996.62c-9.27-.52-19.28,2.59-19.28,2.59s5,4,14.29,4.48,19.28-2.6,19.28-2.6S1974.23,2997.14,1965,2996.62Z"/><path class="cls-62" d="M1955.55,2977.3s-.69-3.88-7.64-6.07-17.52-1.88-17.52-1.88.69,3.88,7.64,6.07S1955.55,2977.3,1955.55,2977.3Z"/><path class="cls-62" d="M2110.78,3005.13a30.88,30.88,0,0,0-15.69,4.44s9.67,3.75,19.35,3.49a30.94,30.94,0,0,0,15.69-4.45S2120.46,3004.86,2110.78,3005.13Z"/><path class="cls-62" d="M2133.51,2995.91c-9.27.52-14.29,4.48-14.29,4.48s10,3.11,19.27,2.59,14.3-4.47,14.3-4.47S2142.78,2995.39,2133.51,2995.91Z"/><path class="cls-62" d="M2143.25,2984.62a24.62,24.62,0,0,0-5.49,1.55,25.3,25.3,0,0,0,5.15-10.1h0a22.69,22.69,0,0,0,.43-2.3,21,21,0,0,0-2.13-12c1.48-.49,8.11-2.83,10.54-5.95,2.75-3.52-.9-6.7-.9-6.7s-8.1,2.54-10.85,6.06a4.36,4.36,0,0,0-1,2.89,42.76,42.76,0,0,0-11.11-10.4l.44.16s3.09-3.71,1.18-7.26-8.08-5.59-8.08-5.59-3.09,3.71-1.18,7.26a7,7,0,0,0,1.25,1.62,108.3,108.3,0,0,0-18-7.39,28.3,28.3,0,0,0-9.79-4.5,48.57,48.57,0,0,0-14.42-1,26.59,26.59,0,0,0,10.81,5.3,47.93,47.93,0,0,0,14,1.07,102.43,102.43,0,0,1,17.88,7.62,35.19,35.19,0,0,0-6.34-1.76,49.42,49.42,0,0,0-14.58-.19,33.82,33.82,0,0,0,12.18,4.64,49.12,49.12,0,0,0,13.65.3c5.92,4,10.25,8.4,12.81,13.12a21.77,21.77,0,0,0-9.06-5.6,39.92,39.92,0,0,0-14.24-1.37,20.67,20.67,0,0,0,9.77,6.43,39.48,39.48,0,0,0,14,1.39,20.72,20.72,0,0,1,2.1,11.89c0,.13-.05.26-.07.39a13.53,13.53,0,0,0-6.23-5.68c-5.9-2.77-14.3-2.41-14.3-2.41s1.16,4.86,7,7.63c4.56,2.14,10.59,2.41,13.1,2.42a25.87,25.87,0,0,1-6,11.08,14.55,14.55,0,0,0-1.81,1.2c.73-1.69,1.61-4.94-.88-7.55-3.53-3.71-12.48-4.72-12.48-4.72s-3.23,5,.29,8.69c3,3.13,9.83,4.34,11.88,4.64a5.27,5.27,0,0,0-.54.63l.6.09a60.76,60.76,0,0,1-14.88,9.6c1-1.13,4.18-5.4,1.78-8.93-2.8-4.1-12.15-5.66-12.15-5.66s-4.82,5.1-2,9.21c2.52,3.71,10.38,5.34,11.89,5.62a125.06,125.06,0,0,1-23.92,8c1.25-.75,7.64-4.84,6.93-8.87-.78-4.45-10-7.14-10-7.14s-7.93,4.54-7.15,9c.73,4.14,8.7,6.74,9.84,7.09a207.64,207.64,0,0,1-21.47,3.8l.32.53c20.11-2.54,37.32-7.33,49.77-13.87a57.88,57.88,0,0,0,12.1-8.25c3.3.45,10.91,1.25,17.17.2,8.26-1.37,11-5.42,11-5.42S2151.5,2983.24,2143.25,2984.62Z"/><path class="cls-62" d="M2150.56,2970.52c-6.95,2.2-7.64,6.08-7.64,6.08s10.57.32,17.52-1.88,7.64-6.07,7.64-6.07S2157.51,2968.33,2150.56,2970.52Z"/><ellipse class="cls-62" cx="2049.23" cy="2972.01" rx="41.29" ry="19.04"/><path class="cls-59" d="M2717.6,3051.92c-23.84-31.17-87.14-53.45-161.49-53.45s-137.66,22.28-161.5,53.45h-10.12v27.41c0,44.65,76.84,80.85,171.62,80.85s171.61-36.2,171.61-80.85v-27.41Z"/><ellipse class="cls-60" cx="2556.11" cy="3051.92" rx="171.61" ry="80.85"/><ellipse class="cls-61" cx="2556.11" cy="3051.92" rx="160.83" ry="75.77"/><path class="cls-60" d="M2556.1,3120.73c-39.35,0-76.37-7.07-104.24-19.92-28.14-13-43.65-30.34-43.65-48.89s15.51-35.92,43.65-48.9c27.87-12.85,64.89-19.92,104.24-19.92s76.38,7.07,104.25,19.92c28.14,13,43.65,30.35,43.65,48.9s-15.51,35.91-43.65,48.89C2632.48,3113.66,2595.46,3120.73,2556.1,3120.73Zm0-135.3c-80.26,0-145.56,29.82-145.56,66.49s65.3,66.49,145.56,66.49,145.57-29.83,145.57-66.49S2636.37,2985.43,2556.1,2985.43Z"/><ellipse class="cls-61" cx="2556.11" cy="3051.92" rx="143.25" ry="66.05"/><path class="cls-62" d="M2518.74,3084.48c.86-4.89-7.84-9.87-7.84-9.87s-10.08,2.94-10.94,7.83c-.77,4.41,6.24,8.9,7.61,9.73a137.62,137.62,0,0,1-26.24-8.8c1.66-.31,10.28-2.1,13-6.17,3.06-4.51-2.23-10.1-2.23-10.1s-10.25,1.71-13.32,6.21c-2.63,3.88.9,8.55,1.95,9.79a66.91,66.91,0,0,1-16.32-10.52l.67-.11a7.1,7.1,0,0,0-.6-.68c2.25-.33,9.75-1.66,13-5.09,3.86-4.06.32-9.54.32-9.54s-9.82,1.12-13.69,5.18c-2.73,2.86-1.77,6.43-1,8.28a17,17,0,0,0-2-1.31,28.44,28.44,0,0,1-6.56-12.15c2.76,0,9.37-.31,14.37-2.66,6.46-3,7.73-8.37,7.73-8.37s-9.21-.39-15.68,2.65a14.82,14.82,0,0,0-6.84,6.23c0-.15-.05-.29-.07-.43a22.73,22.73,0,0,1,2.3-13c1.52.12,8.84.57,15.32-1.53a22.64,22.64,0,0,0,10.72-7.05s-8.34-.86-15.62,1.51a23.79,23.79,0,0,0-9.93,6.13c2.8-5.18,7.55-10,14-14.38a53.89,53.89,0,0,0,15-.34,37.17,37.17,0,0,0,13.35-5.08,54.37,54.37,0,0,0-16,.2,39.78,39.78,0,0,0-6.95,1.93,112.75,112.75,0,0,1,19.6-8.35,52.85,52.85,0,0,0,15.33-1.17,29.1,29.1,0,0,0,11.85-5.82,53.4,53.4,0,0,0-15.81,1.14,30.76,30.76,0,0,0-10.74,4.93,118.79,118.79,0,0,0-19.78,8.1,7.64,7.64,0,0,0,1.37-1.78c2.09-3.89-1.29-8-1.29-8s-6.78,2.25-8.87,6.14,1.29,8,1.29,8l.49-.18a47,47,0,0,0-12.19,11.41,4.76,4.76,0,0,0-1.11-3.18c-3-3.86-11.89-6.63-11.89-6.63s-4,3.48-1,7.34c2.67,3.42,9.95,6,11.56,6.53a23,23,0,0,0-2.32,13.2,22.06,22.06,0,0,0,.47,2.53h0a28,28,0,0,0,5.65,11.08,26.6,26.6,0,0,0-6-1.7c-9.05-1.51-20.66.49-20.66.49s3.06,4.44,12.12,5.95c6.87,1.15,15.21.27,18.83-.22a63.28,63.28,0,0,0,13.28,9.05c13.65,7.17,32.52,12.43,54.58,15.21l.34-.58a226.92,226.92,0,0,1-23.54-4.16C2509.2,3091.87,2517.94,3089,2518.74,3084.48Z"/><path class="cls-62" d="M2488.6,3089c-10.61-.29-21.22,3.83-21.22,3.83s6.6,4.58,17.21,4.87,21.23-3.82,21.23-3.82S2499.22,3089.3,2488.6,3089Z"/><path class="cls-62" d="M2463.68,3078.91c-10.17-.57-21.15,2.84-21.15,2.84s5.51,4.34,15.68,4.91,21.14-2.84,21.14-2.84S2473.84,3079.48,2463.68,3078.91Z"/><path class="cls-62" d="M2453.36,3057.72s-.76-4.25-8.38-6.66-19.22-2-19.22-2,.76,4.25,8.38,6.66S2453.36,3057.72,2453.36,3057.72Z"/><path class="cls-62" d="M2623.61,3088.24c-10.62.29-17.21,4.88-17.21,4.88s10.6,4.11,21.22,3.82,17.21-4.87,17.21-4.87S2634.22,3088,2623.61,3088.24Z"/><path class="cls-62" d="M2648.54,3078.13c-10.17.58-15.68,4.91-15.68,4.91s11,3.42,21.14,2.85,15.68-4.91,15.68-4.91S2658.7,3077.56,2648.54,3078.13Z"/><path class="cls-62" d="M2659.21,3065.75a26.75,26.75,0,0,0-6,1.7,28,28,0,0,0,5.65-11.08h0a24.5,24.5,0,0,0,.48-2.53,23.14,23.14,0,0,0-2.33-13.21c1.61-.53,8.89-3.1,11.56-6.52,3-3.86-1-7.34-1-7.34s-8.88,2.77-11.89,6.63a4.76,4.76,0,0,0-1.11,3.18,46.82,46.82,0,0,0-12.19-11.41l.49.18s3.38-4.07,1.29-8-8.87-6.14-8.87-6.14-3.38,4.07-1.29,8a7.64,7.64,0,0,0,1.37,1.78,118.79,118.79,0,0,0-19.78-8.1,30.92,30.92,0,0,0-10.74-4.94,53.21,53.21,0,0,0-15.81-1.13,29.1,29.1,0,0,0,11.85,5.82,52.85,52.85,0,0,0,15.33,1.17,113.08,113.08,0,0,1,19.6,8.35,39.78,39.78,0,0,0-6.95-1.93,54,54,0,0,0-16-.2,37.17,37.17,0,0,0,13.35,5.08,53.89,53.89,0,0,0,15,.34c6.49,4.36,11.24,9.2,14,14.38a23.71,23.71,0,0,0-9.93-6.14c-7.28-2.36-15.62-1.5-15.62-1.5a22.64,22.64,0,0,0,10.72,7c6.48,2.1,13.8,1.65,15.32,1.53a22.71,22.71,0,0,1,2.3,13c0,.14-.05.28-.07.43a14.82,14.82,0,0,0-6.84-6.23c-6.47-3-15.68-2.65-15.68-2.65s1.27,5.33,7.73,8.37c5,2.35,11.61,2.64,14.37,2.66a28.44,28.44,0,0,1-6.56,12.15,17,17,0,0,0-2,1.31c.8-1.85,1.76-5.42-1-8.28-3.87-4.07-13.69-5.18-13.69-5.18s-3.54,5.47.33,9.54c3.27,3.43,10.77,4.76,13,5.08a5.45,5.45,0,0,0-.59.69l.66.11a66.91,66.91,0,0,1-16.32,10.52c1-1.24,4.58-5.91,1.95-9.79-3.07-4.5-13.32-6.21-13.32-6.21s-5.29,5.59-2.23,10.1c2.77,4.07,11.39,5.86,13,6.17a137.75,137.75,0,0,1-26.23,8.8c1.36-.83,8.37-5.32,7.6-9.73-.86-4.89-10.94-7.83-10.94-7.83s-8.7,5-7.84,9.86c.8,4.54,9.54,7.4,10.79,7.79a232.36,232.36,0,0,1-23.54,4.16l.34.57c22.06-2.77,40.93-8,54.59-15.2a63.57,63.57,0,0,0,13.27-9.05c3.62.49,12,1.36,18.83.22,9.06-1.51,12.12-6,12.12-6S2668.26,3064.24,2659.21,3065.75Z"/><path class="cls-62" d="M2667.23,3050.29c-7.62,2.41-8.38,6.66-8.38,6.66s11.6.35,19.22-2.06,8.38-6.65,8.38-6.65S2674.85,3047.88,2667.23,3050.29Z"/><ellipse class="cls-62" cx="2556.11" cy="3051.92" rx="45.29" ry="20.88"/><path class="cls-63" d="M2224.68,2717.46c-18.83-24.62-68.84-42.22-127.59-42.22s-108.76,17.6-127.59,42.22h-8v21.66c0,35.28,60.71,63.88,135.59,63.88s135.59-28.6,135.59-63.88v-21.66Z"/><ellipse class="cls-63" cx="2097.09" cy="2717.46" rx="135.59" ry="63.88"/><ellipse class="cls-64" cx="2097.09" cy="2717.46" rx="127.07" ry="59.87"/><path class="cls-63" d="M2064.59,2745.78c.75-4.25-6.81-8.58-6.81-8.58s-8.78,2.56-9.52,6.81c-.68,3.84,5.42,7.74,6.61,8.46a119.63,119.63,0,0,1-22.82-7.65c1.44-.27,8.94-1.83,11.34-5.37,2.67-3.91-1.93-8.78-1.93-8.78s-8.92,1.48-11.59,5.4c-2.29,3.37.79,7.44,1.7,8.52a58,58,0,0,1-14.2-9.16l.58-.09a5.4,5.4,0,0,0-.52-.6c2-.28,8.48-1.43,11.33-4.42,3.36-3.53.28-8.3.28-8.3s-8.54,1-11.9,4.51c-2.38,2.49-1.54,5.59-.84,7.2a14.84,14.84,0,0,0-1.73-1.14,24.72,24.72,0,0,1-5.71-10.57c2.4,0,8.16-.27,12.5-2.31,5.62-2.65,6.73-7.28,6.73-7.28s-8-.34-13.64,2.3a12.94,12.94,0,0,0-6,5.42c0-.12,0-.25-.06-.37a19.75,19.75,0,0,1,2-11.34,37.84,37.84,0,0,0,13.32-1.33,19.75,19.75,0,0,0,9.33-6.13,38,38,0,0,0-13.59,1.3,20.83,20.83,0,0,0-8.64,5.34c2.44-4.5,6.57-8.72,12.22-12.51a46.9,46.9,0,0,0,13-.29,32.36,32.36,0,0,0,11.62-4.42,47.08,47.08,0,0,0-13.91.18,34.13,34.13,0,0,0-6,1.67,98.61,98.61,0,0,1,17-7.26,46.27,46.27,0,0,0,13.33-1,25.23,25.23,0,0,0,10.31-5.06,46.41,46.41,0,0,0-13.75,1,27,27,0,0,0-9.34,4.29,102.74,102.74,0,0,0-17.2,7,7.2,7.2,0,0,0,1.19-1.55c1.82-3.39-1.13-6.93-1.13-6.93s-5.89,1.95-7.71,5.34,1.13,6.93,1.13,6.93l.42-.16a40.62,40.62,0,0,0-10.6,9.92,4.14,4.14,0,0,0-1-2.76c-2.61-3.36-10.34-5.77-10.34-5.77s-3.49,3-.87,6.38c2.32,3,8.65,5.21,10.06,5.68a20,20,0,0,0-2,11.49,20.58,20.58,0,0,0,.41,2.19h0a24.29,24.29,0,0,0,4.92,9.63,23.47,23.47,0,0,0-5.23-1.47c-7.87-1.32-18,.42-18,.42s2.67,3.86,10.54,5.18c6,1,13.23.23,16.38-.19a55.35,55.35,0,0,0,11.55,7.87c11.87,6.23,28.29,10.81,47.48,13.22l.29-.5a198.74,198.74,0,0,1-20.47-3.62C2056.29,2752.21,2063.9,2749.73,2064.59,2745.78Z"/><path class="cls-63" d="M2038.38,2749.73c-9.24-.25-18.46,3.32-18.46,3.32a29.55,29.55,0,0,0,15,4.25c9.23.25,18.46-3.33,18.46-3.33A29.49,29.49,0,0,0,2038.38,2749.73Z"/><path class="cls-63" d="M2016.7,2740.94c-8.85-.5-18.39,2.47-18.39,2.47s4.79,3.78,13.63,4.27,18.39-2.47,18.39-2.47S2025.54,2741.43,2016.7,2740.94Z"/><path class="cls-63" d="M2007.72,2722.51s-.66-3.7-7.29-5.79-16.71-1.79-16.71-1.79.66,3.7,7.29,5.79S2007.72,2722.51,2007.72,2722.51Z"/><path class="cls-63" d="M2155.8,2749.06a29.49,29.49,0,0,0-15,4.24s9.23,3.58,18.46,3.32a29.49,29.49,0,0,0,15-4.24S2165,2748.8,2155.8,2749.06Z"/><path class="cls-63" d="M2177.48,2740.27c-8.84.49-13.63,4.27-13.63,4.27s9.54,3,18.39,2.47,13.63-4.27,13.63-4.27S2186.33,2739.77,2177.48,2740.27Z"/><path class="cls-63" d="M2186.77,2729.49a24,24,0,0,0-5.23,1.48,24.29,24.29,0,0,0,4.92-9.63h0a20.58,20.58,0,0,0,.41-2.19,20,20,0,0,0-2-11.49c1.41-.47,7.74-2.7,10.06-5.68,2.62-3.36-.87-6.38-.87-6.38s-7.73,2.41-10.34,5.77a4.14,4.14,0,0,0-1,2.76,40.62,40.62,0,0,0-10.6-9.92l.43.15s2.94-3.53,1.12-6.92-7.71-5.34-7.71-5.34-2.95,3.54-1.13,6.93a7,7,0,0,0,1.2,1.55,103.22,103.22,0,0,0-17.21-7.05,27.11,27.11,0,0,0-9.34-4.3,46.22,46.22,0,0,0-13.75-1,25.23,25.23,0,0,0,10.31,5.06,46.27,46.27,0,0,0,13.33,1,98.61,98.61,0,0,1,17.05,7.26,34.37,34.37,0,0,0-6.05-1.67,47.08,47.08,0,0,0-13.91-.18,32.36,32.36,0,0,0,11.62,4.42,46.9,46.9,0,0,0,13,.29c5.65,3.79,9.78,8,12.22,12.51a20.83,20.83,0,0,0-8.64-5.34,38.18,38.18,0,0,0-13.59-1.31,19.67,19.67,0,0,0,9.33,6.13,37.68,37.68,0,0,0,13.32,1.34,19.75,19.75,0,0,1,2,11.34c0,.12,0,.25-.06.37a12.88,12.88,0,0,0-5.95-5.42c-5.62-2.64-13.64-2.3-13.64-2.3s1.11,4.63,6.73,7.28c4.35,2,10.1,2.3,12.5,2.31a24.72,24.72,0,0,1-5.71,10.57,14.84,14.84,0,0,0-1.73,1.14c.7-1.61,1.54-4.71-.84-7.2-3.36-3.54-11.9-4.51-11.9-4.51s-3.08,4.76.28,8.3c2.85,3,9.37,4.14,11.33,4.42a5.4,5.4,0,0,0-.52.6l.58.09a57.7,57.7,0,0,1-14.2,9.15c.91-1.07,4-5.14,1.7-8.51-2.67-3.92-11.59-5.4-11.59-5.4s-4.6,4.86-1.93,8.78c2.4,3.54,9.9,5.1,11.34,5.37a119.63,119.63,0,0,1-22.82,7.65c1.19-.72,7.29-4.62,6.61-8.46-.74-4.25-9.51-6.81-9.51-6.81s-7.57,4.33-6.82,8.58c.69,3.95,8.3,6.43,9.38,6.77a198.74,198.74,0,0,1-20.47,3.62l.29.5c19.19-2.41,35.61-7,47.48-13.22a55.35,55.35,0,0,0,11.55-7.87c3.15.42,10.4,1.18,16.38.19,7.87-1.32,10.54-5.18,10.54-5.18S2194.64,2728.18,2186.77,2729.49Z"/><path class="cls-63" d="M2193.75,2716.05c-6.63,2.09-7.29,5.79-7.29,5.79s10.08.3,16.71-1.79,7.29-5.79,7.29-5.79S2200.38,2714,2193.75,2716.05Z"/><ellipse class="cls-63" cx="2097.09" cy="2717.46" rx="39.39" ry="18.16"/><path class="cls-24" d="M2498,494a23.47,23.47,0,1,1,16.59-40h0A23.46,23.46,0,0,1,2498,494Zm0-41.26a17.8,17.8,0,1,0,12.58,5.21A17.68,17.68,0,0,0,2498,452.77Z"/><polygon class="cls-24" points="2528.34 505.1 2510.55 487.16 2514.56 483.15 2532.34 501.09 2528.34 505.1"/><path class="cls-24" d="M2536.28,509h0a5.09,5.09,0,0,1-7.2,0l-14.91-14.9,7.21-7.2,14.9,14.9A5.09,5.09,0,0,1,2536.28,509Z"/><g class="cls-65"><polygon class="cls-66" points="3401.27 2361.99 2411.86 2797.77 2682.73 2870.5 2815.24 2870.18 2813.3 2905.9 3115.41 2995.43 4191.53 2479.93 3401.27 2361.99"/></g><path class="cls-67" d="M2583,1967.42a6.14,6.14,0,0,1-6.1-5.48c-9.27-85.38,14.54-164.72,57.91-192.93,21.74-14.15,46.06-14.19,70.33-.13,30.1,17.45,47.53,46.81,51.8,87.25,2.17,20.59.77,43.09-4.16,66.87-.14.69-.25,1.19-.31,1.51a6.14,6.14,0,0,1-12.25-.26,13.54,13.54,0,0,1,.53-3.75c6.5-31.34,15.44-107.82-41.77-141-20.28-11.75-39.61-11.83-57.47-.21-18.39,12-33.82,35.94-43.46,67.51-10.27,33.67-13.36,73-8.93,113.79a6.15,6.15,0,0,1-5.45,6.77A5.12,5.12,0,0,1,2583,1967.42Zm169.49-43.81Zm0,0h0Z"/><polygon class="cls-68" points="2456.56 1954.58 2622.91 2003.92 2845.89 1928.37 3036.53 1863.77 2879.26 1875.45 2841.62 1863.77 2456.56 1954.58"/><polygon class="cls-69" points="2841.62 1863.77 2845.89 1928.37 3036.53 1863.77 2879.26 1875.45 2841.62 1863.77"/><polygon class="cls-25" points="2621.05 1977.03 2682.73 2870.5 2411.86 2793.56 2456.56 1954.58 2583.02 1961.28 2621.05 1977.03"/><polygon class="cls-70" points="2682.73 2870.5 3127.45 2636.93 3036.53 1863.78 2621.05 1977.03 2682.73 2870.5"/><polygon class="cls-71" points="2583.02 1961.28 2559.16 2735.91 2682.73 2870.5 2621.05 1977.03 2583.02 1961.28"/><polygon class="cls-72" points="2559.16 2735.91 2411.86 2793.56 2682.73 2870.5 2559.16 2735.91"/><path class="cls-67" d="M2712.39,1980.69a6.15,6.15,0,0,1-6.1-5.49c-9.91-91.31,15.52-176.13,61.84-206.27,23.15-15.06,49-15.1,74.89-.12,32.12,18.62,50.72,50,55.28,93.13,2.32,22,.83,46.07-4.45,71.5-.15.76-.27,1.31-.33,1.65a6.15,6.15,0,0,1-12.26-.24,14.34,14.34,0,0,1,.56-3.9c7-33.67,16.58-115.84-45-151.51-21.57-12.5-43-12.57-62-.2-19.79,12.87-36.39,38.64-46.74,72.56-11,36.12-14.34,78.34-9.59,122.08a6.14,6.14,0,0,1-5.45,6.77C2712.84,1980.67,2712.61,1980.69,2712.39,1980.69Zm181.14-46.5h0Z"/><polygon class="cls-25" points="3041.25 1919.9 2732.34 2003.92 2778.74 2820.08 3127.45 2636.93 3041.25 1919.9"/><path class="cls-67" d="M3002.72,1989.7a6.8,6.8,0,0,1-6.75-6.06c-10.24-94.41,16.09-182.13,64-213.32,24-15.64,50.93-15.69,77.76-.14,33.28,19.29,52.55,51.75,57.28,96.47,2.4,22.76.85,47.64-4.6,73.93-.16.76-.28,1.33-.34,1.68a6.8,6.8,0,0,1-13.55-.29,15.1,15.1,0,0,1,.58-4.15c7.19-34.65,17.08-119.22-46.18-155.88-22.43-13-43.8-13.07-63.54-.23-20.34,13.23-37.4,39.74-48.05,74.65-11.36,37.22-14.78,80.73-9.89,125.81a6.78,6.78,0,0,1-6,7.49A6.12,6.12,0,0,1,3002.72,1989.7Zm187.41-48.45h0Zm0,0h0Z"/><polygon class="cls-73" points="2862.9 1975.5 3046.84 2030.06 3293.39 1946.53 3504.18 1875.1 3330.28 1888.01 3288.67 1875.1 2862.9 1975.5"/><polygon class="cls-73" points="3288.67 1875.1 3293.39 1946.53 3504.18 1875.1 3330.28 1888.01 3288.67 1875.1"/><polygon class="cls-74" points="3044.79 2000.33 3112.99 2988.23 2813.48 2903.16 2862.9 1975.5 3002.73 1982.91 3044.79 2000.33"/><polygon class="cls-75" points="3112.99 2988.23 3604.7 2729.98 3504.17 1875.11 3044.79 2000.33 3112.99 2988.23"/><polygon class="cls-76" points="3002.73 1982.91 2976.35 2839.42 3112.99 2988.23 3044.79 2000.33 3002.73 1982.91"/><polygon class="cls-75" points="2976.35 2839.42 2813.48 2903.16 3112.99 2988.23 2976.35 2839.42"/><path class="cls-67" d="M3145.78,2004.37a6.8,6.8,0,0,1-6.75-6.06c-11-101,17.17-194.75,68.38-228.07,25.6-16.66,54.23-16.7,82.81-.14,35.51,20.58,56.07,55.23,61.11,103,2.57,24.34.92,50.94-4.91,79.06-.17.84-.3,1.45-.37,1.83a6.79,6.79,0,0,1-13.55-.27,15.63,15.63,0,0,1,.61-4.32c7.72-37.23,18.33-128.07-49.71-167.51-23.85-13.82-47.56-13.91-68.58-.23-21.87,14.23-40.23,42.73-51.67,80.23-12.19,39.94-15.85,86.62-10.61,135a6.8,6.8,0,0,1-6,7.49A6.23,6.23,0,0,1,3145.78,2004.37ZM3346.07,1953h0Z"/></g></g></g></svg>